<svg width="46" height="46" viewBox="0 0 46 46" fill="none" xmlns="http://www.w3.org/2000/svg">
<mask id="path-1-inside-1_884_408" fill="white">
<path d="M46 23C46 35.7025 35.7025 46 23 46C10.2975 46 0 35.7025 0 23C0 10.2975 10.2975 0 23 0C35.7025 0 46 10.2975 46 23Z"/>
</mask>
<path d="M37.4309 22.6596L37.7901 23.0074L38.1336 22.6527L37.7832 22.3048L37.4309 22.6596ZM30.8661 30.1572L37.7901 23.0074L37.0717 22.3118L30.1477 29.4616L30.8661 30.1572ZM37.7832 22.3048L30.8592 15.4295L30.1546 16.1391L37.0786 23.0144L37.7832 22.3048ZM8.56814 23.3203H30.5123V22.3203H8.56814V23.3203ZM45 23C45 35.1503 35.1503 45 23 45V47C36.2548 47 47 36.2548 47 23H45ZM23 45C10.8497 45 1 35.1503 1 23H-1C-1 36.2548 9.74517 47 23 47V45ZM1 23C1 10.8497 10.8497 1 23 1V-1C9.74517 -1 -1 9.74517 -1 23H1ZM23 1C35.1503 1 45 10.8497 45 23H47C47 9.74517 36.2548 -1 23 -1V1Z" fill="white" mask="url(#path-1-inside-1_884_408)"/>
</svg>
