<svg width="46" height="46" viewBox="0 0 46 46" fill="none" xmlns="http://www.w3.org/2000/svg">
<mask id="path-1-inside-1_884_408" fill="white">
<path d="M4.02145e-06 23C6.24243e-06 10.2974 10.2975 -6.24243e-06 23 -4.02145e-06C35.7026 -1.80046e-06 46 10.2975 46 23C46 35.7025 35.7025 46 23 46C10.2975 46 1.80046e-06 35.7025 4.02145e-06 23Z"/>
</mask>
<path d="M8.56912 23.3404L8.20994 22.9926L7.86643 23.3473L8.21682 23.6952L8.56912 23.3404ZM15.134 15.8428L8.20994 22.9926L8.9283 23.6882L15.8523 16.5384L15.134 15.8428ZM8.21682 23.6952L15.1408 30.5705L15.8454 29.8609L8.92142 22.9856L8.21682 23.6952ZM37.4319 22.6797L15.4877 22.6797L15.4877 23.6797L37.4319 23.6797L37.4319 22.6797ZM1 23C1.00001 10.8497 10.8497 0.999994 23 0.999996L23 -1C9.74517 -1.00001 -0.999994 9.74516 -0.999996 23L1 23ZM23 0.999996C35.1503 0.999998 45 10.8497 45 23L47 23C47 9.74517 36.2548 -1 23 -1L23 0.999996ZM45 23C45 35.1503 35.1503 45 23 45L23 47C36.2548 47 47 36.2548 47 23L45 23ZM23 45C10.8497 45 1 35.1503 1 23L-0.999996 23C-0.999998 36.2548 9.74517 47 23 47L23 45Z" fill="white" mask="url(#path-1-inside-1_884_408)"/>
</svg>
