<svg width="961" height="960" viewBox="0 0 961 960" fill="none" xmlns="http://www.w3.org/2000/svg">
<path fill-rule="evenodd" clip-rule="evenodd" d="M148.587 0H812.73C894.426 0 960.658 66.2303 960.658 147.929V812.071C960.658 893.767 894.426 960 812.73 960H148.587C66.8885 960 0.658203 893.767 0.658203 812.071V147.929C0.658203 66.2303 66.8885 0 148.587 0Z" fill="white"/>
<path d="M639.38 291.25C619.38 291.25 604.38 306.25 604.38 326.25C604.38 346.25 619.38 361.25 639.38 361.25C659.38 361.25 674.38 346.25 674.38 326.25C674.38 306.25 659.38 291.25 639.38 291.25Z" fill="black"/>
<path d="M481.88 336.25C399.38 336.25 334.38 403.75 334.38 483.75C334.38 563.75 401.88 631.25 481.88 631.25C561.88 631.25 629.38 563.75 629.38 483.75C629.38 403.75 564.38 336.25 481.88 336.25ZM481.88 578.75C429.38 578.75 386.88 536.25 386.88 483.75C386.88 431.25 429.38 388.75 481.88 388.75C534.38 388.75 576.88 431.25 576.88 483.75C576.88 536.25 534.38 578.75 481.88 578.75Z" fill="black"/>
<path d="M601.88 181.25H364.38C261.88 181.25 181.88 261.25 181.88 361.25V598.75C181.88 698.75 261.88 778.75 361.88 778.75H599.38C699.38 778.75 779.38 698.75 779.38 598.75V361.25C781.88 261.25 701.88 181.25 601.88 181.25ZM724.38 601.25C724.38 668.75 669.38 726.25 599.38 726.25H361.88C294.38 726.25 236.88 671.25 236.88 601.25V363.75C236.88 296.25 291.88 238.75 361.88 238.75H599.38C666.88 238.75 724.38 293.75 724.38 363.75V601.25Z" fill="black"/>
</svg>
