<svg width="1356" height="664" viewBox="0 0 1356 664" fill="none" xmlns="http://www.w3.org/2000/svg">
<g clip-path="url(#clip0_634_293)">
<path d="M676.5 1868.15C303.903 1868.15 1.85204 1565.87 1.85208 1193C1.85213 820.125 303.903 517.852 676.5 517.852C1049.1 517.852 1351.15 820.126 1351.15 1193C1351.15 1565.87 1049.1 1868.15 676.5 1868.15Z" stroke="black" stroke-opacity="0.5" stroke-width="1.70417"/>
<path d="M675.5 1350.15C302.902 1350.15 0.852035 1048.1 0.852084 675.5C0.852133 302.902 302.902 0.851946 675.5 0.851995C1048.1 0.852044 1350.15 302.902 1350.15 675.5C1350.15 1048.1 1048.1 1350.15 675.5 1350.15Z" stroke="black" stroke-opacity="0.5" stroke-width="1.70417"/>
<rect y="363.088" width="1356" height="89.761" fill="url(#paint0_linear_634_293)"/>
<path d="M0 511L1356 511" stroke="black" stroke-opacity="0.5" stroke-width="1.70417"/>
<path d="M92.5059 288.35V291.5C91.2725 291.567 90.2892 291.75 89.5559 292.05C88.8559 292.35 88.4059 292.783 88.2059 293.35C88.0059 293.917 87.8392 294.583 87.7059 295.35C87.6059 296.083 87.5559 296.9 87.5559 297.8C87.5559 297.833 87.5559 297.883 87.5559 297.95C87.5559 297.983 87.5559 298.033 87.5559 298.1C87.5559 298.133 87.5559 298.167 87.5559 298.2C87.5559 298.233 87.5559 298.267 87.5559 298.3C87.5559 298.3 87.5559 298.317 87.5559 298.35C87.5559 298.383 87.5559 298.433 87.5559 298.5C87.5559 298.533 87.5559 298.567 87.5559 298.6C87.5559 298.667 87.5559 298.717 87.5559 298.75C87.5559 298.783 87.5559 298.833 87.5559 298.9C87.5559 298.933 87.5559 298.983 87.5559 299.05C87.5559 299.083 87.5559 299.117 87.5559 299.15C87.5559 299.217 87.5559 299.267 87.5559 299.3C87.5559 299.333 87.5559 299.383 87.5559 299.45V304.2L87.6559 317.75C87.6559 317.85 87.6559 317.933 87.6559 318C87.6559 318.033 87.6559 318.083 87.6559 318.15C87.6559 318.183 87.6559 318.217 87.6559 318.25C87.6559 318.283 87.6559 318.3 87.6559 318.3C87.6559 318.333 87.6559 318.367 87.6559 318.4C87.6559 318.433 87.6559 318.467 87.6559 318.5C87.6559 319.267 87.7059 319.983 87.8059 320.65C87.9059 321.317 88.0559 321.917 88.2559 322.45C88.4225 323.017 88.8059 323.45 89.4059 323.75C90.0059 324.05 90.8059 324.2 91.8059 324.2L92.5059 324.15V327.3C92.4725 327.3 92.4225 327.3 92.3559 327.3C92.3225 327.3 92.2725 327.3 92.2059 327.3C92.1725 327.3 92.1392 327.3 92.1059 327.3C92.0725 327.3 92.0392 327.317 92.0059 327.35C91.9725 327.35 91.9225 327.35 91.8559 327.35C91.8225 327.35 91.7725 327.35 91.7059 327.35C91.6725 327.35 91.6392 327.35 91.6059 327.35C91.5725 327.35 91.5392 327.35 91.5059 327.35C91.5059 327.35 91.4892 327.35 91.4559 327.35C89.6892 327.35 88.2559 327.067 87.1559 326.5C86.0892 325.967 85.3725 325.167 85.0059 324.1C84.6059 323.033 84.3059 321.867 84.1059 320.6C83.9059 319.333 83.7892 317.967 83.7559 316.5C83.7225 316.2 83.6892 315.9 83.6559 315.6C83.6559 315.3 83.6559 315 83.6559 314.7C83.6559 314.533 83.6559 314.383 83.6559 314.25C83.6559 314.083 83.6559 313.917 83.6559 313.75C83.6559 313.617 83.6559 313.467 83.6559 313.3C83.6559 313.133 83.6559 312.983 83.6559 312.85C83.6559 312.55 83.6559 312.25 83.6559 311.95C83.6559 311.65 83.6559 311.35 83.6559 311.05C83.6559 310.883 83.6559 310.733 83.6559 310.6C83.6559 310.433 83.6559 310.267 83.6559 310.1C83.6559 309.967 83.6559 309.817 83.6559 309.65C83.6559 309.483 83.6559 309.333 83.6559 309.2V300.8C83.6559 299.033 83.7559 297.4 83.9559 295.9C84.1559 294.4 84.4725 293.083 84.9059 291.95C85.3059 290.783 86.1392 289.917 87.4059 289.35C88.6725 288.75 90.3725 288.45 92.5059 288.45V288.35ZM112.482 322H110.832V318.95C109.832 320.283 108.732 321.167 107.532 321.6C106.365 322.033 104.798 322.25 102.832 322.25C100.032 322.25 97.9816 321.617 96.6816 320.35C95.3816 319.05 94.7316 316.967 94.7316 314.1V298.75H98.2816V314.1C98.2816 315.533 98.4316 316.633 98.7316 317.4C99.0316 318.133 99.5483 318.65 100.282 318.95C101.015 319.25 102.098 319.4 103.532 319.4C105.398 319.4 106.798 319.2 107.732 318.8C108.698 318.367 109.398 317.65 109.832 316.65C110.265 315.617 110.482 314.2 110.482 312.4V298.75H114.032V319.1H114.182C115.315 319.1 115.882 319.717 115.882 320.95V325.75H112.482V322ZM119.552 322V298.75H129.802C131.468 298.75 132.885 298.833 134.052 299C135.218 299.167 136.218 299.583 137.052 300.25C138.185 301.05 138.752 302.717 138.752 305.25C138.752 308.217 137.802 309.883 135.902 310.25C136.902 310.483 137.652 311.033 138.152 311.9C138.652 312.767 138.902 313.833 138.902 315.1C138.902 316.767 138.668 318.067 138.202 319C137.768 319.933 137.118 320.617 136.252 321.05C135.418 321.483 134.452 321.75 133.352 321.85C132.285 321.95 130.885 322 129.152 322H119.552ZM134.302 302.1C133.635 301.633 132.402 301.4 130.602 301.4C130.135 301.4 128.935 301.383 127.002 301.35C125.068 301.317 123.702 301.3 122.902 301.3V308.45H131.802C132.835 308.45 133.585 308.367 134.052 308.2C134.552 308 134.885 307.667 135.052 307.2C135.252 306.7 135.352 305.967 135.352 305C135.352 303.6 135.002 302.633 134.302 302.1ZM122.902 319.3H129.152C129.352 319.3 129.685 319.317 130.152 319.35C130.618 319.383 130.968 319.4 131.202 319.4C132.535 319.4 133.535 319.15 134.202 318.65C134.968 318.183 135.352 317.05 135.352 315.25C135.352 313.617 134.935 312.583 134.102 312.15C133.302 311.683 132.068 311.45 130.402 311.45H128.852H122.902V319.3ZM158.95 314.9H162.6C162.6 317.1 162.2 318.733 161.4 319.8C160.6 320.833 159.516 321.5 158.15 321.8C156.783 322.1 154.95 322.25 152.65 322.25C150.483 322.25 148.716 322.067 147.35 321.7C145.983 321.3 144.933 320.667 144.2 319.8C143.466 318.933 142.95 317.783 142.65 316.35C142.383 314.917 142.25 313.1 142.25 310.9C142.25 307.8 142.433 305.4 142.8 303.7C143.2 302 144.116 300.7 145.55 299.8C147.016 298.867 149.2 298.4 152.1 298.4C155 298.4 157.2 298.7 158.7 299.3C160.2 299.9 161.216 300.95 161.75 302.45C162.283 303.917 162.566 306.167 162.6 309.2V310.95H145.85C145.85 313.083 145.95 314.717 146.15 315.85C146.35 316.95 146.9 317.85 147.8 318.55C148.7 319.217 150.133 319.55 152.1 319.55H153.05C154.983 319.55 156.45 319.317 157.45 318.85C158.45 318.383 158.95 317.317 158.95 315.65V314.9ZM159.05 308.25C159.05 306.15 158.916 304.617 158.65 303.65C158.383 302.683 157.766 302.017 156.8 301.65C155.866 301.25 154.383 301.05 152.35 301.05C150.583 301.05 149.233 301.267 148.3 301.7C147.4 302.133 146.766 302.867 146.4 303.9C146.033 304.9 145.85 306.35 145.85 308.25H159.05ZM184.484 301.55H176.434V322H172.884V301.55H164.834V298.7H184.484V301.55ZM191.031 305.45H187.481C187.481 302.55 188.214 300.7 189.681 299.9C191.148 299.1 193.481 298.7 196.681 298.7C199.048 298.7 200.931 298.883 202.331 299.25C203.764 299.617 204.848 300.383 205.581 301.55C206.348 302.717 206.731 304.483 206.731 306.85V322H203.481L203.631 319.55C202.798 320.717 201.748 321.483 200.481 321.85C199.214 322.183 197.648 322.35 195.781 322.35C193.714 322.35 192.031 322.183 190.731 321.85C189.431 321.483 188.431 320.767 187.731 319.7C187.031 318.6 186.681 317.033 186.681 315C186.681 313.033 187.048 311.55 187.781 310.55C188.514 309.517 189.514 308.833 190.781 308.5C192.081 308.167 193.731 308 195.731 308C197.564 308 199.081 308.133 200.281 308.4C201.514 308.667 202.481 309.317 203.181 310.35V307.65C203.181 305.65 203.014 304.217 202.681 303.35C202.348 302.45 201.731 301.867 200.831 301.6C199.931 301.3 198.464 301.15 196.431 301.15C194.264 301.15 192.781 301.467 191.981 302.1C191.281 302.567 190.931 303.4 190.931 304.6C190.931 304.733 190.948 304.883 190.981 305.05C191.014 305.183 191.031 305.317 191.031 305.45ZM190.281 314.6C190.281 316.6 190.681 317.933 191.481 318.6C192.281 319.233 193.664 319.55 195.631 319.55C197.131 319.55 198.398 319.483 199.431 319.35C200.498 319.183 201.414 318.8 202.181 318.2C202.981 317.567 203.381 316.55 203.381 315.15C203.381 313.25 202.848 312.033 201.781 311.5C200.714 310.967 199.098 310.7 196.931 310.7H196.031C193.531 310.7 191.881 311.05 191.081 311.75C190.548 312.183 190.281 313.133 190.281 314.6ZM209.518 327.35V324.2C210.285 324.2 210.952 324.133 211.518 324C212.085 323.9 212.552 323.717 212.918 323.45C213.285 323.217 213.585 322.85 213.818 322.35C214.052 321.85 214.202 321.2 214.268 320.4C214.268 320.333 214.268 320.267 214.268 320.2C214.268 320.1 214.285 320 214.318 319.9C214.318 319.833 214.318 319.767 214.318 319.7C214.318 319.6 214.318 319.5 214.318 319.4C214.318 319.233 214.318 319.067 214.318 318.9C214.352 318.733 214.385 318.567 214.418 318.4C214.418 318.233 214.418 318.083 214.418 317.95C214.418 317.783 214.418 317.617 214.418 317.45C214.418 317.283 214.418 317.117 214.418 316.95C214.418 316.783 214.418 316.617 214.418 316.45C214.418 316.25 214.418 316.05 214.418 315.85C214.418 315.65 214.435 315.45 214.468 315.25C214.468 315.05 214.468 314.85 214.468 314.65C214.468 314.45 214.468 314.25 214.468 314.05C214.468 313.65 214.468 313.25 214.468 312.85C214.468 312.45 214.468 312.033 214.468 311.6L214.318 297.95C214.318 297.117 214.268 296.333 214.168 295.6C214.068 294.867 213.935 294.183 213.768 293.55C213.602 292.883 213.218 292.4 212.618 292.1C212.018 291.767 211.202 291.6 210.168 291.6L209.518 291.55V288.4C209.552 288.433 209.568 288.467 209.568 288.5C209.602 288.5 209.635 288.5 209.668 288.5C209.702 288.5 209.735 288.5 209.768 288.5C209.835 288.5 209.885 288.5 209.918 288.5C209.985 288.5 210.035 288.483 210.068 288.45C210.102 288.45 210.135 288.45 210.168 288.45C210.202 288.45 210.235 288.45 210.268 288.45C210.335 288.45 210.385 288.45 210.418 288.45C210.485 288.45 210.535 288.45 210.568 288.45C212.335 288.45 213.752 288.717 214.818 289.25C215.885 289.75 216.585 290.533 216.918 291.6C217.285 292.633 217.568 293.783 217.768 295.05C218.002 296.317 218.168 297.683 218.268 299.15C218.268 299.183 218.268 299.217 218.268 299.25C218.268 299.25 218.268 299.267 218.268 299.3C218.268 299.333 218.268 299.367 218.268 299.4C218.268 299.667 218.268 299.933 218.268 300.2C218.268 300.467 218.285 300.717 218.318 300.95C218.318 301.217 218.318 301.483 218.318 301.75C218.318 301.983 218.318 302.233 218.318 302.5C218.318 302.733 218.318 302.983 218.318 303.25C218.318 303.483 218.335 303.733 218.368 304C218.368 304.233 218.368 304.483 218.368 304.75C218.368 304.983 218.368 305.233 218.368 305.5C218.368 306.033 218.368 306.567 218.368 307.1C218.368 307.6 218.368 308.1 218.368 308.6C218.368 308.833 218.368 309.083 218.368 309.35C218.368 309.617 218.368 309.867 218.368 310.1C218.368 310.367 218.368 310.633 218.368 310.9C218.368 311.133 218.368 311.383 218.368 311.65V314.9C218.368 314.967 218.368 315.017 218.368 315.05C218.368 315.083 218.368 315.1 218.368 315.1C218.368 315.133 218.368 315.15 218.368 315.15C218.368 316.683 218.285 318.15 218.118 319.55C217.952 320.95 217.685 322.267 217.318 323.5C216.985 324.767 216.235 325.717 215.068 326.35C213.935 327.017 212.385 327.35 210.418 327.35H209.518Z" fill="black"/>
<path d="M568.289 125.368H577.121C577.121 130.147 576.651 134.029 575.713 137.016C574.774 140.003 573.323 142.221 571.361 143.672C569.483 145.037 566.923 146.061 563.681 146.744C560.438 147.341 556.555 147.64 552.033 147.64C545.718 147.64 540.641 147.043 536.801 145.848C533.046 144.568 530.529 142.648 529.249 140.088C527.969 137.528 527.03 134.2 526.433 130.104C525.835 126.008 525.536 121.144 525.536 115.512C525.536 110.477 525.963 106.125 526.817 102.456C527.67 98.7867 528.993 95.8427 530.785 93.624C532.491 91.4053 535.094 89.7413 538.593 88.632C542.177 87.4373 546.614 86.84 551.905 86.84C555.147 86.84 558.177 87.1387 560.993 87.736C563.894 88.248 566.539 89.016 568.929 90.04C571.318 91.064 573.11 92.8133 574.305 95.288C575.499 97.7627 576.097 101.005 576.097 105.016C576.097 105.101 576.097 105.187 576.097 105.272C576.097 105.357 576.097 105.443 576.097 105.528C576.097 105.613 576.097 105.699 576.097 105.784C576.097 105.869 576.097 105.912 576.097 105.912C576.011 105.997 575.969 106.083 575.969 106.168C575.969 106.253 575.969 106.339 575.969 106.424C575.969 106.509 575.969 106.595 575.969 106.68C575.969 106.765 575.969 106.851 575.969 106.936L567.265 106.68C567.265 104.12 566.966 101.987 566.369 100.28C565.857 98.5733 565.046 97.2933 563.937 96.44C562.827 95.672 561.334 95.0747 559.457 94.648C557.665 94.2213 555.489 94.008 552.929 94.008C549.003 94.008 545.761 94.3493 543.201 95.032C540.726 95.6293 538.977 96.568 537.953 97.848C536.929 99.128 536.161 101.133 535.649 103.864C535.137 106.595 534.881 110.093 534.881 114.36V120.12C534.881 123.619 535.051 126.648 535.393 129.208C535.819 131.768 536.417 133.901 537.185 135.608C537.953 137.229 539.489 138.467 541.793 139.32C544.097 140.173 547.211 140.6 551.137 140.6C554.465 140.6 557.238 140.429 559.457 140.088C561.761 139.661 563.51 139.064 564.705 138.296C565.899 137.528 566.795 136.077 567.393 133.944C567.99 131.811 568.289 129.037 568.289 125.624V125.368ZM595.045 104.504H585.829C585.829 100.493 586.383 97.2933 587.493 94.904C588.602 92.4293 590.309 90.7653 592.613 89.912C594.831 89.0587 597.349 88.4187 600.165 87.992C602.981 87.5653 606.095 87.352 609.509 87.352C613.605 87.352 617.231 87.6507 620.389 88.248C623.631 88.76 626.362 89.6133 628.581 90.808C630.799 91.9173 632.463 93.9653 633.573 96.952C634.767 99.8533 635.365 103.651 635.365 108.344V147H627.045L627.429 140.856C626.149 142.563 624.741 143.928 623.205 144.952C621.669 145.976 620.047 146.659 618.341 147C616.634 147.341 614.842 147.597 612.965 147.768C611.173 147.939 609.295 148.024 607.333 148.024C603.663 148.024 600.378 147.768 597.477 147.256C594.575 146.829 592.101 146.061 590.053 144.952C587.919 143.843 586.341 142.008 585.317 139.448C584.293 136.803 583.781 133.432 583.781 129.336C583.781 125.325 584.335 122.083 585.445 119.608C586.554 117.133 588.175 115.384 590.309 114.36C592.527 113.336 595.002 112.568 597.733 112.056C600.549 111.544 603.663 111.288 607.077 111.288C607.333 111.288 607.546 111.288 607.717 111.288C607.973 111.288 608.229 111.288 608.485 111.288C608.741 111.373 608.997 111.416 609.253 111.416C609.509 111.416 609.765 111.416 610.021 111.416C610.277 111.416 610.533 111.416 610.789 111.416C611.045 111.416 611.301 111.416 611.557 111.416C611.813 111.501 612.069 111.544 612.325 111.544C612.581 111.544 612.837 111.544 613.093 111.544C613.519 111.544 613.903 111.587 614.245 111.672C614.586 111.672 614.97 111.715 615.397 111.8C615.738 111.885 616.079 111.971 616.421 112.056C616.847 112.056 617.231 112.099 617.573 112.184C618.341 112.269 619.066 112.44 619.749 112.696C620.517 112.867 621.242 113.08 621.925 113.336C622.351 113.507 622.778 113.72 623.205 113.976C623.631 114.232 624.015 114.573 624.357 115C624.698 115.341 624.997 115.725 625.253 116.152C625.594 116.579 625.893 117.005 626.149 117.432V110.008C626.149 106.509 625.893 103.608 625.381 101.304C624.869 99 624.101 97.4213 623.077 96.568C622.053 95.6293 620.346 94.9467 617.957 94.52C615.653 94.0933 612.666 93.88 608.997 93.88C608.826 93.88 608.613 93.88 608.357 93.88C608.186 93.88 608.015 93.88 607.845 93.88C607.674 93.9653 607.461 94.008 607.205 94.008C607.034 94.008 606.821 94.008 606.565 94.008C606.309 94.008 606.053 94.008 605.797 94.008C605.541 94.008 605.327 94.008 605.157 94.008C604.901 94.0933 604.645 94.136 604.389 94.136C604.218 94.136 604.047 94.136 603.877 94.136C603.279 94.2213 602.639 94.3067 601.957 94.392C601.359 94.4773 600.805 94.6053 600.293 94.776C599.695 94.9467 599.183 95.16 598.757 95.416C598.33 95.672 597.903 95.928 597.477 96.184C597.05 96.5253 596.666 96.9093 596.325 97.336C596.069 97.6773 595.855 98.0613 595.685 98.488C595.514 98.9147 595.343 99.384 595.173 99.896C595.087 100.323 595.045 100.792 595.045 101.304C595.045 101.389 595.002 101.475 594.917 101.56C594.917 101.645 594.917 101.688 594.917 101.688C594.917 101.773 594.917 101.859 594.917 101.944C594.917 102.029 594.917 102.115 594.917 102.2C594.917 102.285 594.917 102.413 594.917 102.584C594.917 102.669 594.917 102.797 594.917 102.968C594.917 103.053 594.917 103.139 594.917 103.224C594.917 103.309 594.917 103.352 594.917 103.352C594.917 103.437 594.917 103.523 594.917 103.608C594.917 103.693 594.917 103.779 594.917 103.864C594.917 103.949 594.917 104.035 594.917 104.12C594.917 104.205 594.917 104.248 594.917 104.248C594.917 104.333 594.917 104.419 594.917 104.504C595.002 104.589 595.045 104.675 595.045 104.76V104.504ZM592.997 128.056C592.997 130.787 593.253 133.048 593.765 134.84C594.277 136.547 595.087 137.827 596.197 138.68C597.221 139.533 598.629 140.173 600.421 140.6C602.213 140.941 604.346 141.112 606.821 141.112C607.247 141.112 607.674 141.112 608.101 141.112C608.527 141.112 608.997 141.112 609.509 141.112C609.935 141.112 610.362 141.112 610.789 141.112C611.301 141.112 611.813 141.069 612.325 140.984C614.117 140.899 615.823 140.685 617.444 140.344C619.066 139.917 620.645 139.363 622.181 138.68C623.631 137.997 624.741 136.931 625.509 135.48C626.277 133.944 626.661 132.067 626.661 129.848C626.661 127.117 626.234 124.941 625.381 123.32C624.613 121.699 623.418 120.589 621.797 119.992C620.175 119.395 618.383 118.968 616.421 118.712C614.458 118.371 612.367 118.2 610.149 118.2L607.973 117.944C607.802 118.029 607.589 118.115 607.333 118.2C607.162 118.2 606.991 118.2 606.821 118.2C606.565 118.2 606.309 118.2 606.053 118.2C605.882 118.2 605.711 118.2 605.541 118.2C605.285 118.2 605.029 118.2 604.773 118.2C604.602 118.2 604.431 118.2 604.261 118.2C604.005 118.285 603.749 118.328 603.493 118.328C603.322 118.328 603.151 118.328 602.981 118.328C602.213 118.413 601.445 118.541 600.677 118.712C599.994 118.883 599.311 119.053 598.628 119.224C597.946 119.395 597.306 119.651 596.708 119.992C596.111 120.248 595.599 120.589 595.173 121.016C594.831 121.272 594.533 121.571 594.277 121.912C594.021 122.253 593.807 122.637 593.637 123.064C593.551 123.491 593.423 123.96 593.253 124.472C593.167 124.899 593.125 125.325 593.125 125.752C593.039 126.008 592.997 126.264 592.997 126.52C592.997 126.691 592.997 126.861 592.997 127.032C592.997 127.288 592.997 127.544 592.997 127.8C592.997 127.971 592.997 128.141 592.997 128.312V128.056ZM692.695 102.712H683.735C683.735 101.261 683.607 99.9813 683.351 98.872C683.095 97.6773 682.711 96.7387 682.199 96.056C681.687 95.3733 680.876 94.8613 679.767 94.52C678.657 94.0933 677.249 93.8373 675.543 93.752C675.116 93.752 674.689 93.752 674.263 93.752C673.836 93.752 673.452 93.7093 673.111 93.624C672.684 93.624 672.257 93.624 671.831 93.624C671.404 93.624 670.977 93.624 670.551 93.624C669.697 93.624 668.844 93.624 667.991 93.624C667.223 93.624 666.412 93.624 665.559 93.624C665.217 93.624 664.876 93.624 664.535 93.624C664.279 93.624 663.98 93.624 663.639 93.624C663.468 93.624 663.297 93.624 663.127 93.624C662.956 93.624 662.828 93.624 662.743 93.624C662.572 93.7093 662.401 93.752 662.231 93.752C662.06 93.752 661.889 93.752 661.719 93.752C661.121 93.8373 660.481 93.9227 659.799 94.008C659.201 94.008 658.604 94.0933 658.007 94.264C657.409 94.3493 656.812 94.52 656.215 94.776C655.703 95.032 655.233 95.3307 654.807 95.672C654.465 96.0133 654.167 96.3547 653.911 96.696C653.655 97.0373 653.441 97.4213 653.271 97.848C653.185 98.2747 653.057 98.744 652.887 99.256C652.801 99.6827 652.759 100.109 652.759 100.536C652.759 100.707 652.759 100.877 652.759 101.048C652.759 101.219 652.759 101.389 652.759 101.56C652.759 101.731 652.759 101.901 652.759 102.072C652.759 102.243 652.759 102.413 652.759 102.584C652.759 104.461 652.887 106.04 653.143 107.32C653.399 108.515 653.825 109.453 654.423 110.136C655.02 110.733 655.916 111.245 657.111 111.672C658.305 112.013 659.841 112.227 661.719 112.312C662.231 112.397 662.743 112.44 663.255 112.44C663.852 112.44 664.449 112.44 665.047 112.44C665.644 112.44 666.199 112.44 666.711 112.44C667.308 112.44 667.905 112.44 668.503 112.44C671.745 112.525 674.86 112.781 677.847 113.208C680.919 113.549 683.777 114.104 686.423 114.872C689.153 115.64 691.159 117.261 692.439 119.736C693.804 122.211 694.487 125.496 694.487 129.592C694.487 133.944 693.889 137.443 692.695 140.088C691.5 142.648 689.751 144.397 687.447 145.336C685.057 146.189 682.369 146.829 679.383 147.256C676.396 147.683 673.025 147.896 669.271 147.896C669.1 147.896 668.929 147.896 668.759 147.896C668.588 147.896 668.417 147.896 668.247 147.896C668.076 147.896 667.905 147.896 667.735 147.896C667.564 147.896 667.393 147.896 667.223 147.896C664.151 147.811 661.207 147.555 658.391 147.128C655.66 146.787 653.057 146.189 650.583 145.336C648.108 144.483 646.231 142.904 644.951 140.6C643.756 138.296 643.159 135.309 643.159 131.64C643.159 131.469 643.159 131.341 643.159 131.256C643.159 131.085 643.159 130.957 643.159 130.872C643.159 130.787 643.159 130.701 643.159 130.616C643.159 130.531 643.159 130.445 643.159 130.36C643.159 130.36 643.159 130.317 643.159 130.232C643.244 130.147 643.286 130.061 643.286 129.976C643.286 129.805 643.286 129.677 643.286 129.592C643.286 129.421 643.286 129.293 643.286 129.208C643.286 129.123 643.286 129.037 643.286 128.952C643.286 128.867 643.329 128.781 643.415 128.696C643.415 128.696 643.415 128.653 643.415 128.568C643.415 128.483 643.415 128.397 643.415 128.312L652.375 128.056C652.375 130.957 652.631 133.304 653.143 135.096C653.655 136.888 654.423 138.168 655.447 138.936C656.471 139.704 657.879 140.301 659.671 140.728C661.548 141.069 663.809 141.24 666.455 141.24L668.631 140.984C669.057 141.155 669.484 141.24 669.911 141.24C670.423 141.24 670.935 141.24 671.447 141.24C671.959 141.24 672.471 141.24 672.983 141.24C673.495 141.155 674.049 141.069 674.647 140.984C675.329 140.984 676.012 140.941 676.694 140.856C677.463 140.685 678.231 140.515 678.999 140.344C679.681 140.173 680.321 139.96 680.919 139.704C681.516 139.448 682.071 139.149 682.583 138.808C683.009 138.552 683.351 138.211 683.607 137.784C683.948 137.357 684.204 136.888 684.375 136.376C684.545 135.864 684.673 135.352 684.759 134.84C684.929 134.328 685.057 133.773 685.143 133.176C685.143 133.005 685.143 132.877 685.143 132.792C685.143 132.621 685.185 132.493 685.271 132.408C685.271 132.237 685.271 132.109 685.271 132.024C685.271 131.853 685.271 131.725 685.271 131.64C685.271 131.384 685.271 131.128 685.271 130.872C685.271 130.616 685.271 130.36 685.271 130.104C685.271 127.8 684.929 125.965 684.247 124.6C683.649 123.149 682.753 122.253 681.559 121.912C680.364 121.485 678.999 121.187 677.463 121.016C676.012 120.845 674.391 120.76 672.599 120.76C672.513 120.76 672.428 120.76 672.343 120.76C672.257 120.76 672.172 120.76 672.087 120.76C672.001 120.76 671.873 120.76 671.703 120.76C671.532 120.76 671.404 120.717 671.319 120.632C671.148 120.632 670.977 120.632 670.807 120.632C670.721 120.632 670.593 120.632 670.423 120.632C670.337 120.632 670.209 120.632 670.039 120.632C669.868 120.632 669.74 120.632 669.655 120.632C669.484 120.632 669.313 120.632 669.143 120.632C669.057 120.632 668.929 120.632 668.759 120.632C668.503 120.632 668.247 120.632 667.991 120.632C667.82 120.632 667.649 120.632 667.479 120.632C667.393 120.632 667.265 120.632 667.095 120.632C667.009 120.632 666.924 120.589 666.839 120.504C666.668 120.504 666.54 120.504 666.455 120.504C666.369 120.504 666.284 120.504 666.199 120.504C663.127 120.333 660.268 120.077 657.623 119.736C654.977 119.309 652.545 118.712 650.327 117.944C648.193 117.176 646.572 115.683 645.463 113.464C644.353 111.16 643.799 108.131 643.799 104.376C643.799 103.949 643.799 103.565 643.799 103.224C643.799 102.797 643.799 102.413 643.799 102.072C643.799 101.645 643.799 101.219 643.799 100.792C643.884 100.365 643.969 99.9387 644.055 99.512C644.14 98.6587 644.268 97.848 644.439 97.08C644.609 96.2267 644.865 95.416 645.207 94.648C645.463 93.88 645.847 93.1547 646.359 92.472C646.871 91.7893 647.468 91.192 648.151 90.68C648.833 90.168 649.601 89.6987 650.455 89.272C651.308 88.8453 652.247 88.4613 653.271 88.12C654.209 87.864 655.191 87.608 656.215 87.352C657.239 87.096 658.305 86.9253 659.415 86.84C660.097 86.7547 660.78 86.712 661.463 86.712C662.231 86.6267 662.956 86.584 663.639 86.584C663.98 86.584 664.321 86.584 664.663 86.584C665.004 86.584 665.345 86.5413 665.687 86.456C666.028 86.456 666.327 86.456 666.583 86.456C666.924 86.456 667.265 86.456 667.607 86.456C668.119 86.456 668.631 86.456 669.143 86.456C669.74 86.456 670.337 86.456 670.935 86.456C671.191 86.456 671.447 86.456 671.703 86.456C672.044 86.456 672.385 86.456 672.727 86.456C672.983 86.5413 673.239 86.584 673.495 86.584C673.836 86.584 674.177 86.584 674.519 86.584C676.823 86.6693 678.999 86.968 681.047 87.48C683.18 87.992 685.185 88.7173 687.063 89.656C689.025 90.5093 690.476 91.8747 691.415 93.752C692.353 95.6293 692.823 97.976 692.823 100.792C692.823 100.877 692.823 100.963 692.823 101.048C692.823 101.133 692.823 101.219 692.823 101.304C692.823 101.304 692.823 101.347 692.823 101.432C692.823 101.517 692.823 101.603 692.823 101.688C692.823 101.773 692.823 101.859 692.823 101.944C692.737 102.029 692.695 102.115 692.695 102.2C692.695 102.285 692.695 102.371 692.695 102.456C692.695 102.541 692.695 102.627 692.695 102.712C692.695 102.797 692.695 102.883 692.695 102.968V102.712ZM751.71 87.224V147H743.39V139.064C742.11 141.112 740.744 142.776 739.294 144.056C737.843 145.251 736.264 146.104 734.558 146.616C732.936 146.957 731.144 147.256 729.182 147.512C727.219 147.768 725.128 147.896 722.91 147.896C719.326 147.896 716.211 147.512 713.566 146.744C711.006 145.891 708.872 144.653 707.166 143.032C705.544 141.325 704.307 139.192 703.454 136.632C702.6 133.987 702.174 130.872 702.174 127.288V87.224H711.262V127.032C711.262 129.763 711.475 132.024 711.902 133.816C712.414 135.608 713.096 136.973 713.95 137.912C714.888 138.851 716.254 139.576 718.046 140.088C719.838 140.515 722.099 140.728 724.83 140.728C728.328 140.728 731.272 140.429 733.662 139.832C736.051 139.149 737.843 138.125 739.038 136.76C740.232 135.48 741.128 133.688 741.726 131.384C742.323 128.995 742.622 126.093 742.622 122.68V87.224H751.71ZM771.045 104.504H761.829C761.829 100.493 762.383 97.2933 763.493 94.904C764.602 92.4293 766.309 90.7653 768.613 89.912C770.831 89.0587 773.349 88.4187 776.165 87.992C778.981 87.5653 782.095 87.352 785.509 87.352C789.605 87.352 793.231 87.6507 796.389 88.248C799.631 88.76 802.362 89.6133 804.581 90.808C806.799 91.9173 808.463 93.9653 809.573 96.952C810.767 99.8533 811.365 103.651 811.365 108.344V147H803.045L803.429 140.856C802.149 142.563 800.741 143.928 799.205 144.952C797.669 145.976 796.047 146.659 794.341 147C792.634 147.341 790.842 147.597 788.965 147.768C787.173 147.939 785.295 148.024 783.333 148.024C779.663 148.024 776.378 147.768 773.477 147.256C770.575 146.829 768.101 146.061 766.053 144.952C763.919 143.843 762.341 142.008 761.317 139.448C760.293 136.803 759.781 133.432 759.781 129.336C759.781 125.325 760.335 122.083 761.445 119.608C762.554 117.133 764.175 115.384 766.309 114.36C768.527 113.336 771.002 112.568 773.733 112.056C776.549 111.544 779.663 111.288 783.077 111.288C783.333 111.288 783.546 111.288 783.717 111.288C783.973 111.288 784.229 111.288 784.485 111.288C784.741 111.373 784.997 111.416 785.253 111.416C785.509 111.416 785.765 111.416 786.021 111.416C786.277 111.416 786.533 111.416 786.789 111.416C787.045 111.416 787.301 111.416 787.557 111.416C787.813 111.501 788.069 111.544 788.325 111.544C788.581 111.544 788.837 111.544 789.093 111.544C789.519 111.544 789.903 111.587 790.245 111.672C790.586 111.672 790.97 111.715 791.397 111.8C791.738 111.885 792.079 111.971 792.421 112.056C792.847 112.056 793.231 112.099 793.573 112.184C794.341 112.269 795.066 112.44 795.749 112.696C796.517 112.867 797.242 113.08 797.925 113.336C798.351 113.507 798.778 113.72 799.205 113.976C799.631 114.232 800.015 114.573 800.357 115C800.698 115.341 800.997 115.725 801.253 116.152C801.594 116.579 801.893 117.005 802.149 117.432V110.008C802.149 106.509 801.893 103.608 801.381 101.304C800.869 99 800.101 97.4213 799.077 96.568C798.053 95.6293 796.346 94.9467 793.957 94.52C791.653 94.0933 788.666 93.88 784.997 93.88C784.826 93.88 784.613 93.88 784.357 93.88C784.186 93.88 784.015 93.88 783.845 93.88C783.674 93.9653 783.461 94.008 783.205 94.008C783.034 94.008 782.821 94.008 782.565 94.008C782.309 94.008 782.053 94.008 781.797 94.008C781.541 94.008 781.327 94.008 781.157 94.008C780.901 94.0933 780.645 94.136 780.389 94.136C780.218 94.136 780.047 94.136 779.877 94.136C779.279 94.2213 778.639 94.3067 777.957 94.392C777.359 94.4773 776.805 94.6053 776.293 94.776C775.695 94.9467 775.183 95.16 774.757 95.416C774.33 95.672 773.903 95.928 773.477 96.184C773.05 96.5253 772.666 96.9093 772.325 97.336C772.069 97.6773 771.855 98.0613 771.685 98.488C771.514 98.9147 771.343 99.384 771.173 99.896C771.087 100.323 771.045 100.792 771.045 101.304C771.045 101.389 771.002 101.475 770.917 101.56C770.917 101.645 770.917 101.688 770.917 101.688C770.917 101.773 770.917 101.859 770.917 101.944C770.917 102.029 770.917 102.115 770.917 102.2C770.917 102.285 770.917 102.413 770.917 102.584C770.917 102.669 770.917 102.797 770.917 102.968C770.917 103.053 770.917 103.139 770.917 103.224C770.917 103.309 770.917 103.352 770.917 103.352C770.917 103.437 770.917 103.523 770.917 103.608C770.917 103.693 770.917 103.779 770.917 103.864C770.917 103.949 770.917 104.035 770.917 104.12C770.917 104.205 770.917 104.248 770.917 104.248C770.917 104.333 770.917 104.419 770.917 104.504C771.002 104.589 771.045 104.675 771.045 104.76V104.504ZM768.997 128.056C768.997 130.787 769.253 133.048 769.765 134.84C770.277 136.547 771.087 137.827 772.197 138.68C773.221 139.533 774.629 140.173 776.421 140.6C778.213 140.941 780.346 141.112 782.821 141.112C783.247 141.112 783.674 141.112 784.101 141.112C784.527 141.112 784.997 141.112 785.509 141.112C785.935 141.112 786.362 141.112 786.789 141.112C787.301 141.112 787.813 141.069 788.325 140.984C790.117 140.899 791.823 140.685 793.444 140.344C795.066 139.917 796.645 139.363 798.181 138.68C799.631 137.997 800.741 136.931 801.509 135.48C802.277 133.944 802.661 132.067 802.661 129.848C802.661 127.117 802.234 124.941 801.381 123.32C800.613 121.699 799.418 120.589 797.797 119.992C796.175 119.395 794.383 118.968 792.421 118.712C790.458 118.371 788.367 118.2 786.149 118.2L783.973 117.944C783.802 118.029 783.589 118.115 783.333 118.2C783.162 118.2 782.991 118.2 782.821 118.2C782.565 118.2 782.309 118.2 782.053 118.2C781.882 118.2 781.711 118.2 781.541 118.2C781.285 118.2 781.029 118.2 780.773 118.2C780.602 118.2 780.431 118.2 780.261 118.2C780.005 118.285 779.749 118.328 779.493 118.328C779.322 118.328 779.151 118.328 778.981 118.328C778.213 118.413 777.445 118.541 776.677 118.712C775.994 118.883 775.311 119.053 774.628 119.224C773.946 119.395 773.306 119.651 772.708 119.992C772.111 120.248 771.599 120.589 771.173 121.016C770.831 121.272 770.533 121.571 770.277 121.912C770.021 122.253 769.807 122.637 769.637 123.064C769.551 123.491 769.423 123.96 769.253 124.472C769.167 124.899 769.125 125.325 769.125 125.752C769.039 126.008 768.997 126.264 768.997 126.52C768.997 126.691 768.997 126.861 768.997 127.032C768.997 127.288 768.997 127.544 768.997 127.8C768.997 127.971 768.997 128.141 768.997 128.312V128.056ZM829.143 61.624V147H820.055V61.624H829.143Z" fill="black"/>
</g>
<defs>
<linearGradient id="paint0_linear_634_293" x1="0" y1="407.968" x2="1356" y2="407.968" gradientUnits="userSpaceOnUse">
<stop stop-color="white"/>
<stop offset="0.173501" stop-color="#D9BFAC"/>
<stop offset="0.414984" stop-color="#777777"/>
<stop offset="0.61" stop-color="#563927"/>
<stop offset="0.800136" stop-color="#1E3271"/>
<stop offset="0.97" stop-color="#0D0D0D"/>
</linearGradient>
<clipPath id="clip0_634_293">
<rect width="1356" height="664" fill="white"/>
</clipPath>
</defs>
</svg>
