<svg width="1725" height="476" viewBox="0 0 1725 476" fill="none" xmlns="http://www.w3.org/2000/svg">
<path d="M160.55 39.85V366H118.75V39.85H0.5V0.249988H277.7V39.85H160.55ZM348.328 183.95H309.278C309.278 152.05 317.344 131.7 333.478 122.9C349.611 114.1 375.278 109.7 410.478 109.7C436.511 109.7 457.228 111.717 472.628 115.75C488.394 119.783 500.311 128.217 508.378 141.05C516.811 153.883 521.028 173.317 521.028 199.35V366H485.278L486.928 339.05C477.761 351.883 466.211 360.317 452.278 364.35C438.344 368.017 421.111 369.85 400.578 369.85C377.844 369.85 359.328 368.017 345.028 364.35C330.728 360.317 319.728 352.433 312.028 340.7C304.328 328.6 300.478 311.367 300.478 289C300.478 267.367 304.511 251.05 312.578 240.05C320.644 228.683 331.644 221.167 345.578 217.5C359.878 213.833 378.028 212 400.028 212C420.194 212 436.878 213.467 450.078 216.4C463.644 219.333 474.278 226.483 481.978 237.85V208.15C481.978 186.15 480.144 170.383 476.478 160.85C472.811 150.95 466.028 144.533 456.128 141.6C446.228 138.3 430.094 136.65 407.728 136.65C383.894 136.65 367.578 140.133 358.778 147.1C351.078 152.233 347.228 161.4 347.228 174.6C347.228 176.067 347.411 177.717 347.778 179.55C348.144 181.017 348.328 182.483 348.328 183.95ZM340.078 284.6C340.078 306.6 344.478 321.267 353.278 328.6C362.078 335.567 377.294 339.05 398.928 339.05C415.428 339.05 429.361 338.317 440.728 336.85C452.461 335.017 462.544 330.8 470.978 324.2C479.778 317.233 484.178 306.05 484.178 290.65C484.178 269.75 478.311 256.367 466.578 250.5C454.844 244.633 437.061 241.7 413.228 241.7H403.328C375.828 241.7 357.678 245.55 348.878 253.25C343.011 258.017 340.078 268.467 340.078 284.6ZM562.69 110.25H598.99L598.44 143.25C607.24 129.317 618.24 119.783 631.44 114.65C645.007 109.517 660.957 106.95 679.29 106.95C708.99 106.95 731.174 111.9 745.84 121.8C760.874 131.333 770.59 145.267 774.99 163.6C779.757 181.567 782.14 205.95 782.14 236.75C782.14 259.483 781.04 278.367 778.84 293.4C777.007 308.433 772.79 321.633 766.19 333C759.957 344.367 750.057 353.167 736.49 359.4C722.924 365.633 705.324 368.75 683.69 368.75C664.624 368.75 648.124 366.55 634.19 362.15C620.257 357.383 608.524 348.4 598.99 335.2V476H562.69V110.25ZM599.54 229.6V249.4C599.54 269.2 601.19 285.333 604.49 297.8C607.79 310.267 614.574 319.983 624.84 326.95C635.474 333.917 650.874 337.4 671.04 337.4C692.674 337.4 708.624 334.1 718.89 327.5C729.157 320.9 735.574 311.55 738.14 299.45C741.074 287.35 742.54 269.75 742.54 246.65V231.8C742.54 207.233 741.257 188.9 738.69 176.8C736.49 164.333 730.257 154.8 719.99 148.2C710.09 141.6 694.324 138.3 672.69 138.3C651.057 138.3 634.924 141.417 624.29 147.65C614.024 153.517 607.24 162.683 603.94 175.15C601.007 187.25 599.54 205.4 599.54 229.6ZM1027.55 366H989.048V157L858.698 366H848.798H810.298V109.7H848.798V319.25L979.698 109.7H1027.55V366ZM1258.9 146C1273.93 119.967 1297.58 106.95 1329.85 106.95C1355.15 106.95 1374.21 111.9 1387.05 121.8C1400.25 131.333 1408.86 145.083 1412.9 163.05C1417.3 181.017 1419.5 205.583 1419.5 236.75C1419.5 266.45 1417.48 290.65 1413.45 309.35C1409.41 328.05 1401.16 342.717 1388.7 353.35C1376.23 363.617 1357.53 368.75 1332.6 368.75C1296.3 368.75 1272.1 357.567 1260 335.2V476L1220.4 474.35V336.3C1213.06 349.867 1203.35 358.667 1191.25 362.7C1179.15 366.733 1164.3 368.75 1146.7 368.75C1122.13 368.75 1103.8 363.433 1091.7 352.8C1079.6 342.167 1071.53 327.683 1067.5 309.35C1063.83 290.65 1062 266.45 1062 236.75C1062 205.95 1063.83 181.567 1067.5 163.6C1071.53 145.267 1080.15 131.333 1093.35 121.8C1106.55 111.9 1125.8 106.95 1151.1 106.95C1183.36 106.95 1206.83 119.967 1221.5 146V110.25H1258.9V146ZM1219.85 249.4V229.6C1219.85 196.233 1215.26 172.767 1206.1 159.2C1197.3 145.267 1181.16 138.3 1157.7 138.3C1140.83 138.3 1128.36 141.6 1120.3 148.2C1112.6 154.433 1107.83 163.417 1106 175.15C1104.16 186.883 1103.25 204.667 1103.25 228.5V246.65C1103.25 278.55 1106.73 301.283 1113.7 314.85C1121.03 328.417 1135.88 335.933 1158.25 337.4C1175.48 337.4 1188.68 333.917 1197.85 326.95C1207.01 319.983 1212.88 310.267 1215.45 297.8C1218.38 285.333 1219.85 269.2 1219.85 249.4ZM1261.65 249.4C1261.65 264.8 1262.2 277.633 1263.3 287.9C1264.4 297.8 1266.96 306.417 1271 313.75C1275.03 321.083 1281.08 326.95 1289.15 331.35C1297.58 335.383 1308.4 337.4 1321.6 337.4C1338.1 336.3 1350.2 332.633 1357.9 326.4C1365.6 319.8 1370.73 310.267 1373.3 297.8C1375.86 285.333 1377.15 268.283 1377.15 246.65V228.5C1377.15 204.667 1376.23 186.883 1374.4 175.15C1372.93 163.417 1368.16 154.433 1360.1 148.2C1352.4 141.6 1339.75 138.3 1322.15 138.3C1306.38 138.3 1294.1 141.417 1285.3 147.65C1276.5 153.883 1270.26 163.6 1266.6 176.8C1263.3 189.633 1261.65 207.233 1261.65 229.6V249.4ZM1453.22 366V110.25H1490.62V202.65H1588.52C1612.72 204.117 1631.05 211.083 1643.52 223.55C1656.35 235.65 1662.95 253.067 1663.32 275.8C1663.32 299.633 1660.93 317.783 1656.17 330.25C1651.4 342.717 1642.78 351.883 1630.32 357.75C1618.22 363.25 1600.62 366 1577.52 366H1453.22ZM1489.52 236.75V336.3H1557.72C1559.92 336.3 1563.4 336.483 1568.17 336.85C1572.93 337.217 1576.6 337.4 1579.17 337.4C1594.93 337.4 1606.67 334.65 1614.37 329.15C1622.8 324.017 1627.02 310.267 1627.02 287.9V282.95C1627.02 266.817 1622.62 255.083 1613.82 247.75C1605.38 240.417 1588.7 236.75 1563.77 236.75H1489.52ZM1684.77 366V110.25H1724.37V366H1684.77Z" fill="white" fill-opacity="0.51"/>
</svg>
