<svg width="961" height="960" viewBox="0 0 961 960" fill="none" xmlns="http://www.w3.org/2000/svg">
<path fill-rule="evenodd" clip-rule="evenodd" d="M147.975 0H812.117C893.813 0 960.046 66.2303 960.046 147.929V812.071C960.046 893.767 893.813 960 812.117 960H147.975C66.2762 960 0.0458984 893.767 0.0458984 812.071V147.929C0.0458984 66.2303 66.2762 0 147.975 0Z" fill="white"/>
<path d="M377.541 687.72L386.268 555.532L625.628 339.282C636.225 329.595 623.446 324.907 609.421 333.345L313.961 520.532L186.178 479.907C158.751 472.095 158.44 453.032 192.411 439.282L690.143 246.782C712.895 236.47 734.711 252.407 725.985 287.407L641.211 687.72C635.29 716.157 618.148 723.032 594.461 709.907L465.431 614.282L403.41 674.595C396.241 681.782 390.32 687.72 377.541 687.72Z" fill="black"/>
</svg>
