<svg width="960" height="960" viewBox="0 0 960 960" fill="none" xmlns="http://www.w3.org/2000/svg">
<path fill-rule="evenodd" clip-rule="evenodd" d="M147.929 0H812.071C893.767 0 960 66.2303 960 147.929V812.071C960 893.767 893.767 960 812.071 960H147.929C66.2303 960 0 893.767 0 812.071V147.929C0 66.2303 66.2303 0 147.929 0Z" fill="white"/>
<path fill-rule="evenodd" clip-rule="evenodd" d="M471.946 672.029H511.215C511.215 672.029 523.074 670.722 529.137 664.198C534.711 658.202 534.533 646.949 534.533 646.949C534.533 646.949 533.764 594.257 558.216 586.497C582.329 578.849 613.286 637.422 646.095 659.946C670.908 676.985 689.763 673.255 689.763 673.255L777.501 672.029C777.501 672.029 823.396 669.198 801.633 633.112C799.852 630.164 788.955 606.419 736.395 557.632C681.376 506.569 688.752 514.831 755.021 426.504C795.38 372.713 811.512 339.876 806.471 325.812C801.668 312.412 771.981 315.952 771.981 315.952L673.196 316.563C673.196 316.563 665.867 315.566 660.439 318.814C655.13 321.99 651.722 329.412 651.722 329.412C651.722 329.412 636.08 371.034 615.236 406.437C571.247 481.13 553.656 485.084 546.465 480.438C529.737 469.627 533.917 437.017 533.917 413.842C533.917 341.454 544.897 311.272 512.536 303.459C501.799 300.868 493.889 299.154 466.426 298.874C431.175 298.515 401.348 298.983 384.455 307.258C373.216 312.762 364.545 325.023 369.829 325.729C376.36 326.599 391.143 329.72 398.981 340.385C409.107 354.162 408.753 385.088 408.753 385.088C408.753 385.088 414.572 470.301 395.168 480.882C381.854 488.142 363.587 473.322 324.369 405.556C304.279 370.844 289.104 332.47 289.104 332.47C289.104 332.47 286.183 325.301 280.963 321.463C274.634 316.813 265.789 315.339 265.789 315.339L171.913 315.952C171.913 315.952 157.824 316.345 152.646 322.474C148.04 327.929 152.278 339.198 152.278 339.198C152.278 339.198 225.768 511.14 308.989 597.79C385.304 677.244 471.946 672.029 471.946 672.029Z" fill="#0077FF"/>
</svg>
