<svg width="348" height="51" viewBox="0 0 348 51" fill="none" xmlns="http://www.w3.org/2000/svg">
<path d="M342.921 49.7889V47.9528L344.131 46.7427H345.967L347.177 47.9528V49.7889L345.967 50.999H344.131L342.921 49.7889Z" fill="#E81840"/>
<path d="M320.368 47.1607V21.2061H323.456V34.2669L327.503 30.2193H334.806L338.645 34.0582V47.1607L334.806 50.9997H324.207L320.368 47.1607ZM333.47 48.2456L335.557 46.201V35.018L333.47 32.9733H328.38L323.456 37.8972V46.201L325.542 48.2456H333.47Z" fill="white"/>
<path d="M296.484 47.1612V30.2198H299.572V46.2014L301.658 48.2461H305.831L311.005 43.0719V30.2198H314.093V51.0001H311.088V46.577L306.665 51.0001H300.323L296.484 47.1612Z" fill="white"/>
<path d="M287.121 21.2061H290.209V50.9997H287.121V21.2061Z" fill="white"/>
<path d="M264.205 47.1612V34.0587L268.044 30.2198H278.059L281.898 34.0587V36.6041H278.81V35.0184L276.723 32.9738H269.379L267.293 35.0184V46.2014L269.379 48.2461H276.723L278.81 46.2014V44.6158H281.898V47.1612L278.059 51.0001H268.044L264.205 47.1612Z" fill="white"/>
<path d="M176.59 50.9996H210.177L202.895 1.85794H169.27L176.59 50.9996Z" fill="white"/>
<path d="M170.68 1.85794H163.666V50.9996H170.68V1.85794Z" fill="white"/>
<path d="M145.08 8.86896V1.85417H95.9382V8.86896H145.08Z" fill="white"/>
<path d="M145.104 50.9801V43.9653H95.962V50.9801H145.104Z" fill="white"/>
<path d="M221.919 50.9996H255.544L248.224 1.85794H214.599L221.919 50.9996Z" fill="white"/>
<path d="M216.01 1.85794H208.995V50.9996H216.01V1.85794Z" fill="white"/>
<path d="M155.965 1.85794H122.339V50.9996H155.965V1.85794Z" fill="white"/>
<path d="M115.934 1.85794H82.3092V50.9996H115.934V1.85794Z" fill="white"/>
<path fill-rule="evenodd" clip-rule="evenodd" d="M74.6087 1.85658V50.9982L0 50.9988L7.28166 1.85717L74.6087 1.85658ZM23.2553 8.83472H40.9829V39.4863H34.5781L34.5945 27.5211L31.9097 25.99V24.2363L34.5969 25.7465L34.6162 11.694L23.2553 8.83472Z" fill="white"/>
</svg>
