<svg width="397" height="268" viewBox="0 0 397 268" fill="none" xmlns="http://www.w3.org/2000/svg">
<path d="M1.00085 132.145C1.00085 59.7148 59.6661 1.00046 132.032 1.00046C204.397 1.00046 263.062 59.7148 263.062 132.145C263.062 204.574 204.397 263.289 132.032 263.289C59.6661 263.289 1.00085 204.574 1.00085 132.145Z" stroke="white" stroke-width="2"/>
<path d="M133 135.145C133 62.7148 191.665 4.00046 264.031 4.00046C336.396 4.00046 395.061 62.7148 395.061 135.145C395.061 207.574 336.396 266.289 264.031 266.289C191.665 266.289 133 207.574 133 135.145Z" stroke="white" stroke-width="2"/>
<path d="M132.031 0V264.288" stroke="white" stroke-width="2"/>
<path d="M264.031 0V264.288" stroke="white" stroke-width="2"/>
</svg>
