<svg width="409" height="266" viewBox="0 0 409 266" fill="none" xmlns="http://www.w3.org/2000/svg">
<path d="M267 133C267 60.6648 207.468 2 134 2C60.5319 2 1 60.6648 1 133C1 205.335 60.5319 264 134 264C207.468 264 267 205.335 267 133Z" stroke="white" stroke-width="2"/>
<path d="M134.887 1L3.54956 135.583L134.887 265" stroke="white" stroke-width="2"/>
<path d="M275 1L406.338 135.583L275 265" stroke="white" stroke-width="2"/>
<path d="M408 133C408 60.6648 348.468 2 275 2C201.532 2 142 60.6648 142 133C142 205.335 201.532 264 275 264C348.468 264 408 205.335 408 133Z" stroke="white" stroke-width="2"/>
</svg>
