<svg width="1837" height="831" viewBox="0 0 1837 831" fill="none" xmlns="http://www.w3.org/2000/svg">
<path d="M24.9635 799.802V821.082H22.4995V801.53L14.4675 821.082H12.0995L3.93947 801.69V821.082H1.60347V799.802H5.76347L13.2195 817.978L20.7715 799.802H24.9635ZM27.4472 821.082V806.202H29.6232V811.578H35.3192C36.7272 811.663 37.7939 812.069 38.5192 812.794C39.2659 813.498 39.6499 814.511 39.6712 815.834C39.6712 817.221 39.5326 818.277 39.2552 819.002C38.9779 819.727 38.4766 820.261 37.7512 820.602C37.0472 820.922 36.0232 821.082 34.6792 821.082H27.4472ZM29.5592 813.562V819.354H33.5272C33.6552 819.354 33.8579 819.365 34.1352 819.386C34.4126 819.407 34.6259 819.418 34.7752 819.418C35.6926 819.418 36.3752 819.258 36.8232 818.938C37.3139 818.639 37.5592 817.839 37.5592 816.538V816.25C37.5592 815.311 37.3032 814.629 36.7912 814.202C36.3006 813.775 35.3299 813.562 33.8792 813.562H29.5592ZM40.9192 821.082V806.202H43.2232V821.082H40.9192ZM67.8717 821.082H65.7597V818.874C65.3544 819.663 64.6611 820.282 63.6797 820.73C62.6984 821.178 61.6531 821.402 60.5437 821.402C59.5411 821.402 58.6237 821.189 57.7917 820.762C56.9597 820.314 56.4051 819.685 56.1277 818.874C55.1677 820.495 53.4931 821.306 51.1037 821.306C49.8237 821.306 48.7891 821.135 47.9997 820.794C47.2104 820.453 46.6344 819.909 46.2717 819.162C45.9091 818.394 45.7277 817.349 45.7277 816.026V806.202H48.0637V816.25C48.0637 817.509 48.2984 818.373 48.7677 818.842C49.2371 819.29 50.1011 819.514 51.3597 819.514C53.5571 819.514 54.8904 818.927 55.3597 817.754C55.5944 817.157 55.7117 816.357 55.7117 815.354V806.202H57.9837V816.026C58.0051 816.73 58.0584 817.295 58.1437 817.722C58.2504 818.149 58.4211 818.501 58.6557 818.778C58.9117 819.055 59.2531 819.247 59.6797 819.354C60.1277 819.461 60.7037 819.514 61.4077 819.514C62.9864 819.514 64.1064 819.119 64.7677 818.33C65.4291 817.541 65.7597 816.357 65.7597 814.778V806.202H67.8717V821.082ZM82.6735 821.018H80.3055L76.2415 807.834L71.9215 821.018H69.6815L74.5775 806.17H77.7135L82.6735 821.018ZM95.0057 816.538H97.3417C97.3417 817.946 97.0857 818.991 96.5737 819.674C96.0617 820.335 95.3684 820.762 94.4937 820.954C93.6191 821.146 92.4457 821.242 90.9737 821.242C89.5871 821.242 88.4564 821.125 87.5817 820.89C86.7071 820.634 86.0351 820.229 85.5657 819.674C85.0964 819.119 84.7657 818.383 84.5737 817.466C84.4031 816.549 84.3177 815.386 84.3177 813.978C84.3177 811.994 84.4351 810.458 84.6697 809.37C84.9257 808.282 85.5124 807.45 86.4297 806.874C87.3684 806.277 88.7657 805.978 90.6217 805.978C92.4777 805.978 93.8857 806.17 94.8457 806.554C95.8057 806.938 96.4564 807.61 96.7977 808.57C97.1391 809.509 97.3204 810.949 97.3417 812.89V814.01H86.6217C86.6217 815.375 86.6857 816.421 86.8137 817.146C86.9417 817.85 87.2937 818.426 87.8697 818.874C88.4457 819.301 89.3631 819.514 90.6217 819.514H91.2297C92.4671 819.514 93.4057 819.365 94.0457 819.066C94.6857 818.767 95.0057 818.085 95.0057 817.018V816.538ZM95.0697 812.282C95.0697 810.938 94.9844 809.957 94.8137 809.338C94.6431 808.719 94.2484 808.293 93.6297 808.058C93.0324 807.802 92.0831 807.674 90.7817 807.674C89.6511 807.674 88.7871 807.813 88.1897 808.09C87.6137 808.367 87.2084 808.837 86.9737 809.498C86.7391 810.138 86.6217 811.066 86.6217 812.282H95.0697ZM109.971 812.058V806.17H112.179V821.082H109.939V814.01H101.811V821.082H99.6035V806.202H101.811V812.058H109.971ZM127.337 821.082H125.097V808.922L117.513 821.082H116.937H114.697V806.17H116.937V818.362L124.553 806.17H127.337V821.082ZM140.349 816.538H142.685C142.685 817.946 142.429 818.991 141.917 819.674C141.405 820.335 140.712 820.762 139.837 820.954C138.963 821.146 137.789 821.242 136.317 821.242C134.931 821.242 133.8 821.125 132.925 820.89C132.051 820.634 131.379 820.229 130.909 819.674C130.44 819.119 130.109 818.383 129.917 817.466C129.747 816.549 129.661 815.386 129.661 813.978C129.661 811.994 129.779 810.458 130.013 809.37C130.269 808.282 130.856 807.45 131.773 806.874C132.712 806.277 134.109 805.978 135.965 805.978C137.821 805.978 139.229 806.17 140.189 806.554C141.149 806.938 141.8 807.61 142.141 808.57C142.483 809.509 142.664 810.949 142.685 812.89V814.01H131.965C131.965 815.375 132.029 816.421 132.157 817.146C132.285 817.85 132.637 818.426 133.213 818.874C133.789 819.301 134.707 819.514 135.965 819.514H136.573C137.811 819.514 138.749 819.365 139.389 819.066C140.029 818.767 140.349 818.085 140.349 817.018V816.538ZM140.413 812.282C140.413 810.938 140.328 809.957 140.157 809.338C139.987 808.719 139.592 808.293 138.973 808.058C138.376 807.802 137.427 807.674 136.125 807.674C134.995 807.674 134.131 807.813 133.533 808.09C132.957 808.367 132.552 808.837 132.317 809.498C132.083 810.138 131.965 811.066 131.965 812.282H140.413Z" fill="white"/>
<path d="M1754.8 27.0198H1752.66V24.7478C1752.66 23.9584 1752.36 23.5638 1751.76 23.5638H1738.23C1737.91 23.5851 1737.69 23.6918 1737.59 23.8838C1737.48 24.0544 1737.43 24.3424 1737.43 24.7478V27.0198H1735.28V21.4838H1736.5C1737.1 21.0784 1737.53 20.2251 1737.81 18.9238C1738.09 17.6864 1738.23 16.1718 1738.23 14.3798V2.18778H1753.27V21.4838H1754.8V27.0198ZM1750.9 21.4838V4.29978H1740.6V15.1158C1740.6 18.6571 1740.08 20.7798 1739.06 21.4838H1750.9ZM1757.13 8.68378H1759.25L1759.21 10.6038C1759.73 9.79311 1760.37 9.23845 1761.13 8.93978C1761.92 8.64111 1762.85 8.49178 1763.92 8.49178C1765.65 8.49178 1766.94 8.77978 1767.79 9.35578C1768.67 9.91045 1769.23 10.7211 1769.49 11.7878C1769.76 12.8331 1769.9 14.2518 1769.9 16.0438C1769.9 17.3664 1769.84 18.4651 1769.71 19.3398C1769.6 20.2144 1769.36 20.9824 1768.97 21.6438C1768.61 22.3051 1768.04 22.8171 1767.25 23.1798C1766.46 23.5424 1765.43 23.7238 1764.17 23.7238C1763.07 23.7238 1762.11 23.5958 1761.29 23.3398C1760.48 23.0624 1759.8 22.5398 1759.25 21.7718V29.9638H1757.13V8.68378ZM1759.28 15.6278V16.7798C1759.28 17.9318 1759.37 18.8704 1759.57 19.5958C1759.76 20.3211 1760.15 20.8864 1760.75 21.2918C1761.37 21.6971 1762.27 21.8998 1763.44 21.8998C1764.7 21.8998 1765.63 21.7078 1766.22 21.3238C1766.82 20.9398 1767.19 20.3958 1767.34 19.6918C1767.51 18.9878 1767.6 17.9638 1767.6 16.6198V15.7558C1767.6 14.3264 1767.52 13.2598 1767.37 12.5558C1767.25 11.8304 1766.88 11.2758 1766.29 10.8918C1765.71 10.5078 1764.79 10.3158 1763.53 10.3158C1762.28 10.3158 1761.34 10.4971 1760.72 10.8598C1760.12 11.2011 1759.73 11.7344 1759.53 12.4598C1759.36 13.1638 1759.28 14.2198 1759.28 15.6278ZM1783.51 8.68378L1779.32 24.3958C1778.98 25.8464 1778.38 27.1904 1777.52 28.4278C1776.67 29.6651 1775.65 30.2838 1774.45 30.2838C1774.11 30.2838 1773.71 30.2198 1773.24 30.0918V28.2998C1773.28 28.2998 1773.38 28.3104 1773.52 28.3318C1773.67 28.3531 1773.77 28.3638 1773.81 28.3638C1774.52 28.3638 1775.08 28.1184 1775.51 27.6278C1775.96 27.1584 1776.27 26.6251 1776.44 26.0278C1776.63 25.4518 1776.85 24.6304 1777.11 23.5638H1776.34L1770.96 8.68378H1773.24L1777.91 21.8998L1781.24 8.68378H1783.51ZM1796.08 8.68378V14.7318H1796.75L1801.61 8.74778H1804.11L1798.35 15.5638L1805.1 23.5638H1802.51L1796.75 16.4598H1796.08V23.5638H1793.87V16.4598H1793.23L1787.5 23.5638H1784.85L1791.6 15.5638L1785.87 8.74778H1788.4L1793.23 14.7318H1793.87V8.68378H1796.08ZM1807.13 9.09978C1807.13 9.01445 1807.12 8.90778 1807.1 8.77978C1807.08 8.65178 1807.07 8.54511 1807.07 8.45978C1807.07 7.54245 1807.27 6.75311 1807.67 6.09178C1808.08 5.43045 1808.71 4.90778 1809.56 4.52378C1810.42 4.13978 1811.5 3.94778 1812.83 3.94778H1813.43C1813.56 3.94778 1813.74 3.95845 1813.98 3.97978C1814.23 4.00111 1814.42 4.01178 1814.52 4.01178C1815.52 4.01178 1816.25 3.88378 1816.7 3.62778C1817.15 3.35045 1817.37 2.92378 1817.37 2.34778L1819.77 2.28378C1819.77 2.71045 1819.76 3.06245 1819.74 3.33978C1819.74 3.61711 1819.68 3.88378 1819.58 4.13978C1819.47 4.39578 1819.28 4.63045 1819 4.84378C1818.34 5.48378 1816.93 5.80378 1814.78 5.80378C1814.65 5.80378 1814.46 5.79311 1814.2 5.77178C1813.97 5.75045 1813.79 5.73978 1813.66 5.73978C1812.34 5.73978 1811.31 5.93178 1810.59 6.31578C1809.88 6.67845 1809.53 7.43578 1809.53 8.58778V9.29178C1810.66 8.69445 1811.97 8.39578 1813.47 8.39578C1815.34 8.39578 1816.77 8.60911 1817.75 9.03578C1818.74 9.44111 1819.41 10.1451 1819.77 11.1478C1820.13 12.1504 1820.31 13.6224 1820.31 15.5638C1820.31 17.5478 1820.21 19.0944 1819.99 20.2038C1819.8 21.2918 1819.26 22.1664 1818.36 22.8278C1817.47 23.4678 1816.06 23.7878 1814.14 23.7878C1812.3 23.7878 1810.88 23.6171 1809.88 23.2758C1808.9 22.9344 1808.2 22.2838 1807.77 21.3238C1807.34 20.3638 1807.13 18.9558 1807.13 17.0998V9.09978ZM1809.37 16.9398C1809.37 19.2438 1809.69 20.7158 1810.33 21.3558C1810.74 21.7824 1811.52 21.9958 1812.7 21.9958H1813.79C1814.72 21.9958 1815.47 21.9211 1816.03 21.7718C1816.6 21.6011 1817.04 21.2811 1817.34 20.8118C1817.66 20.3424 1817.85 19.6598 1817.91 18.7638C1817.96 17.9958 1817.98 16.8651 1817.98 15.3718C1817.98 13.9211 1817.91 12.8651 1817.79 12.2038C1817.68 11.5424 1817.36 11.0518 1816.83 10.7318C1816.29 10.3904 1815.44 10.2198 1814.27 10.2198H1813.79C1812.44 10.2198 1811.47 10.3478 1810.87 10.6038C1810.28 10.8384 1809.87 11.2971 1809.66 11.9798C1809.47 12.6411 1809.37 13.7184 1809.37 15.2118V16.9398ZM1825.13 12.9718H1822.86C1822.86 11.1158 1823.33 9.93178 1824.27 9.41978C1825.21 8.90778 1826.7 8.65178 1828.75 8.65178C1830.26 8.65178 1831.47 8.76911 1832.36 9.00378C1833.28 9.23845 1833.97 9.72911 1834.44 10.4758C1834.93 11.2224 1835.18 12.3531 1835.18 13.8678V23.5638H1833.1L1833.2 21.9958C1832.66 22.7424 1831.99 23.2331 1831.18 23.4678C1830.37 23.6811 1829.37 23.7878 1828.17 23.7878C1826.85 23.7878 1825.77 23.6811 1824.94 23.4678C1824.11 23.2331 1823.47 22.7744 1823.02 22.0918C1822.57 21.3878 1822.35 20.3851 1822.35 19.0838C1822.35 17.8251 1822.58 16.8758 1823.05 16.2358C1823.52 15.5744 1824.16 15.1371 1824.97 14.9238C1825.8 14.7104 1826.86 14.6038 1828.14 14.6038C1829.31 14.6038 1830.28 14.6891 1831.05 14.8598C1831.84 15.0304 1832.46 15.4464 1832.91 16.1078V14.3798C1832.91 13.0998 1832.8 12.1824 1832.59 11.6278C1832.37 11.0518 1831.98 10.6784 1831.4 10.5078C1830.83 10.3158 1829.89 10.2198 1828.59 10.2198C1827.2 10.2198 1826.25 10.4224 1825.74 10.8278C1825.29 11.1264 1825.07 11.6598 1825.07 12.4278C1825.07 12.5131 1825.08 12.6091 1825.1 12.7158C1825.12 12.8011 1825.13 12.8864 1825.13 12.9718ZM1824.65 18.8278C1824.65 20.1078 1824.91 20.9611 1825.42 21.3878C1825.93 21.7931 1826.82 21.9958 1828.08 21.9958C1829.04 21.9958 1829.85 21.9531 1830.51 21.8678C1831.19 21.7611 1831.78 21.5158 1832.27 21.1318C1832.78 20.7264 1833.04 20.0758 1833.04 19.1798C1833.04 17.9638 1832.69 17.1851 1832.01 16.8438C1831.33 16.5024 1830.29 16.3318 1828.91 16.3318H1828.33C1826.73 16.3318 1825.68 16.5558 1825.16 17.0038C1824.82 17.2811 1824.65 17.8891 1824.65 18.8278Z" fill="white"/>
<path d="M1769.32 813.85H1771.68C1771.68 814.085 1771.71 814.426 1771.75 814.874C1771.79 815.301 1771.81 815.621 1771.81 815.834C1771.81 819.034 1770.23 820.783 1767.08 821.082C1765.95 821.167 1764.8 821.21 1763.65 821.21H1760.68C1759.18 821.082 1758.01 820.709 1757.16 820.09C1756.32 819.45 1755.75 818.629 1755.43 817.626C1755.11 816.602 1754.92 815.407 1754.85 814.042C1754.79 812.655 1754.76 811.461 1754.76 810.458V807.066C1754.76 805.658 1754.91 804.463 1755.2 803.482C1755.5 802.479 1756.06 801.669 1756.87 801.05C1757.68 800.431 1758.79 800.058 1760.2 799.93C1761.07 799.823 1762.45 799.77 1764.32 799.77C1765.84 799.77 1767.02 799.855 1767.88 800.026C1768.73 800.197 1769.4 800.506 1769.89 800.954C1770.38 801.402 1770.75 802.063 1770.98 802.938C1771.22 803.791 1771.39 804.975 1771.49 806.49H1769.09C1769.09 805.295 1769.02 804.378 1768.87 803.738C1768.72 803.098 1768.37 802.629 1767.81 802.33C1767.26 802.01 1766.44 801.85 1765.35 801.85C1763.98 801.85 1762.48 801.903 1760.84 802.01C1759.83 802.095 1759.07 802.33 1758.53 802.714C1758 803.098 1757.65 803.631 1757.48 804.314C1757.33 804.975 1757.25 805.871 1757.25 807.002V811.898C1757.25 814.778 1757.54 816.73 1758.12 817.754C1758.61 818.671 1760 819.13 1762.31 819.13C1762.48 819.13 1762.79 819.141 1763.24 819.162C1763.71 819.183 1764.07 819.194 1764.32 819.194C1765.78 819.194 1766.97 819.002 1767.91 818.618C1768.85 818.213 1769.34 817.423 1769.38 816.25C1769.38 815.973 1769.37 815.578 1769.35 815.066C1769.33 814.533 1769.32 814.127 1769.32 813.85ZM1784.54 816.538H1786.87C1786.87 817.946 1786.62 818.991 1786.1 819.674C1785.59 820.335 1784.9 820.762 1784.02 820.954C1783.15 821.146 1781.98 821.242 1780.5 821.242C1779.12 821.242 1777.99 821.125 1777.11 820.89C1776.24 820.634 1775.57 820.229 1775.1 819.674C1774.63 819.119 1774.3 818.383 1774.1 817.466C1773.93 816.549 1773.85 815.386 1773.85 813.978C1773.85 811.994 1773.97 810.458 1774.2 809.37C1774.46 808.282 1775.04 807.45 1775.96 806.874C1776.9 806.277 1778.3 805.978 1780.15 805.978C1782.01 805.978 1783.42 806.17 1784.38 806.554C1785.34 806.938 1785.99 807.61 1786.33 808.57C1786.67 809.509 1786.85 810.949 1786.87 812.89V814.01H1776.15C1776.15 815.375 1776.22 816.421 1776.34 817.146C1776.47 817.85 1776.82 818.426 1777.4 818.874C1777.98 819.301 1778.89 819.514 1780.15 819.514H1780.76C1782 819.514 1782.94 819.365 1783.58 819.066C1784.22 818.767 1784.54 818.085 1784.54 817.018V816.538ZM1784.6 812.282C1784.6 810.938 1784.52 809.957 1784.34 809.338C1784.17 808.719 1783.78 808.293 1783.16 808.058C1782.56 807.802 1781.61 807.674 1780.31 807.674C1779.18 807.674 1778.32 807.813 1777.72 808.09C1777.14 808.367 1776.74 808.837 1776.5 809.498C1776.27 810.138 1776.15 811.066 1776.15 812.282H1784.6ZM1797.77 819.514L1803.15 806.17H1806.57V821.018H1804.49V808.122L1799.28 821.018H1796.37L1791.15 808.122V821.018H1789.13V806.17H1792.4L1797.77 819.514ZM1809.1 821.082V806.202H1811.28V811.578H1816.98C1818.36 811.663 1819.43 812.069 1820.18 812.794C1820.94 813.498 1821.34 814.511 1821.36 815.834C1821.36 817.221 1821.22 818.277 1820.94 819.002C1820.69 819.727 1820.2 820.261 1819.47 820.602C1818.77 820.922 1817.74 821.082 1816.4 821.082H1809.1ZM1814.74 819.354H1815.25C1815.38 819.354 1815.58 819.365 1815.86 819.386C1816.13 819.407 1816.35 819.418 1816.5 819.418C1817.39 819.418 1818.04 819.258 1818.45 818.938C1818.98 818.639 1819.25 817.839 1819.25 816.538V816.25C1819.25 815.311 1818.99 814.629 1818.48 814.202C1817.97 813.775 1817 813.562 1815.57 813.562H1811.25V819.354H1814.74ZM1835.08 806.202V821.082H1832.87V815.642H1827.04C1826.57 815.642 1826.17 815.802 1825.83 816.122C1825.51 816.442 1825.35 816.741 1825.35 817.018L1825.28 821.082H1823.04L1823.14 817.306L1823.11 817.178C1823.11 816.581 1823.27 815.994 1823.59 815.418C1823.91 814.842 1824.3 814.543 1824.77 814.522C1824.13 814.031 1823.64 813.583 1823.3 813.178C1822.96 812.751 1822.79 812.186 1822.79 811.482C1822.79 810.095 1822.92 809.029 1823.17 808.282C1823.43 807.535 1823.89 807.002 1824.55 806.682C1825.23 806.362 1826.22 806.202 1827.52 806.202H1835.08ZM1832.87 807.898H1827.84C1826.78 807.898 1826.03 808.026 1825.6 808.282C1825.16 808.623 1824.93 809.434 1824.93 810.714C1824.93 810.757 1824.92 810.81 1824.9 810.874C1824.88 810.917 1824.87 810.949 1824.87 810.97C1824.87 812.847 1825.9 813.786 1827.97 813.786C1828.04 813.786 1828.21 813.775 1828.48 813.754C1828.78 813.711 1829.01 813.69 1829.16 813.69H1832.87V807.898Z" fill="white"/>
<path d="M17.9235 17.4198C17.9235 18.7424 17.7421 19.8624 17.3795 20.7798C17.0381 21.6758 16.4621 22.3691 15.6515 22.8598C14.8408 23.3291 13.7635 23.5638 12.4195 23.5638H1.60347V2.28378H16.3555V4.39578H3.93947V11.5638H12.5795C14.2648 11.5638 15.5768 12.0651 16.5155 13.0678C17.4541 14.0704 17.9235 15.4144 17.9235 17.0998V17.4198ZM12.3555 13.6758H3.93947V21.4838H10.4675C11.8541 21.4838 12.8675 21.4091 13.5075 21.2598C14.1475 21.1104 14.6168 20.7584 14.9155 20.2038C15.2141 19.6491 15.3635 18.7531 15.3635 17.5158C15.3635 16.2571 15.1608 15.3078 14.7555 14.6678C14.3715 14.0064 13.5715 13.6758 12.3555 13.6758ZM32.5247 23.5638H30.2847V11.4038L22.7007 23.5638H22.1247H19.8847V8.65178H22.1247V20.8438L29.7407 8.65178H32.5247V23.5638ZM45.537 16.0438C46.7956 16.3851 47.425 17.4198 47.425 19.1478C47.425 20.5131 47.169 21.5264 46.657 22.1878C46.1663 22.8491 45.4836 23.2758 44.609 23.4678C43.7343 23.6384 42.5823 23.7238 41.153 23.7238C39.8303 23.7238 38.721 23.6491 37.825 23.4998C36.9503 23.3291 36.2143 22.9558 35.617 22.3798C35.0196 21.7824 34.721 20.8758 34.721 19.6598C34.721 19.2758 34.7316 18.9984 34.753 18.8278H36.961C36.961 19.7024 37.0783 20.3744 37.313 20.8438C37.5476 21.2918 37.9103 21.6011 38.401 21.7718C38.8916 21.9211 39.5956 21.9958 40.513 21.9958H41.025C42.7743 21.9958 43.937 21.8038 44.513 21.4198C44.961 21.1211 45.185 20.3958 45.185 19.2438C45.185 18.2838 44.9503 17.6758 44.481 17.4198C44.0116 17.1424 43.297 17.0038 42.337 17.0038H41.473C41.409 17.0038 41.3343 16.9931 41.249 16.9718C41.1636 16.9504 41.089 16.9398 41.025 16.9398H37.889V14.8918H42.913C43.873 14.8704 44.5023 14.6998 44.801 14.3798C45.0996 14.0384 45.249 13.4091 45.249 12.4918C45.249 11.6171 44.961 11.0411 44.385 10.7638C43.8303 10.4651 43.0516 10.3158 42.049 10.3158H40.545C39.6063 10.3158 38.8596 10.4651 38.305 10.7638C37.7716 11.0624 37.505 11.6811 37.505 12.6198H35.297C35.297 12.5344 35.2863 12.4491 35.265 12.3638C35.2436 12.2571 35.233 12.1718 35.233 12.1078C35.233 11.0198 35.5316 10.2091 36.129 9.67578C36.7476 9.14245 37.4943 8.81178 38.369 8.68378C39.2436 8.55578 40.289 8.49178 41.505 8.49178C43.8303 8.49178 45.4516 8.84378 46.369 9.54778C46.7956 9.88911 47.073 10.3478 47.201 10.9238C47.3503 11.4998 47.425 12.1824 47.425 12.9718C47.425 13.8038 47.2543 14.4971 46.913 15.0518C46.593 15.6064 46.1343 15.9371 45.537 16.0438ZM60.1277 14.5398V8.65178H62.3357V23.5638H60.0957V16.4918H51.9677V23.5638H49.7597V8.68378H51.9677V14.5398H60.1277ZM75.3495 19.0198H77.6855C77.6855 20.4278 77.4295 21.4731 76.9175 22.1558C76.4055 22.8171 75.7121 23.2438 74.8375 23.4358C73.9628 23.6278 72.7895 23.7238 71.3175 23.7238C69.9308 23.7238 68.8001 23.6064 67.9255 23.3718C67.0508 23.1158 66.3788 22.7104 65.9095 22.1558C65.4401 21.6011 65.1095 20.8651 64.9175 19.9478C64.7468 19.0304 64.6615 17.8678 64.6615 16.4598C64.6615 14.4758 64.7788 12.9398 65.0135 11.8518C65.2695 10.7638 65.8561 9.93178 66.7735 9.35578C67.7121 8.75845 69.1095 8.45978 70.9655 8.45978C72.8215 8.45978 74.2295 8.65178 75.1895 9.03578C76.1495 9.41978 76.8001 10.0918 77.1415 11.0518C77.4828 11.9904 77.6641 13.4304 77.6855 15.3718V16.4918H66.9655C66.9655 17.8571 67.0295 18.9024 67.1575 19.6278C67.2855 20.3318 67.6375 20.9078 68.2135 21.3558C68.7895 21.7824 69.7068 21.9958 70.9655 21.9958H71.5735C72.8108 21.9958 73.7495 21.8464 74.3895 21.5478C75.0295 21.2491 75.3495 20.5664 75.3495 19.4998V19.0198ZM75.4135 14.7638C75.4135 13.4198 75.3281 12.4384 75.1575 11.8198C74.9868 11.2011 74.5921 10.7744 73.9735 10.5398C73.3761 10.2838 72.4268 10.1558 71.1255 10.1558C69.9948 10.1558 69.1308 10.2944 68.5335 10.5718C67.9575 10.8491 67.5521 11.3184 67.3175 11.9798C67.0828 12.6198 66.9655 13.5478 66.9655 14.7638H75.4135ZM90.3792 18.1238H92.5872C92.5872 19.6598 92.3846 20.8331 91.9792 21.6438C91.5739 22.4331 90.9126 22.9771 89.9952 23.2758C89.0992 23.5531 87.8726 23.6918 86.3152 23.6918C84.7579 23.6918 83.5312 23.5318 82.6352 23.2118C81.7392 22.8918 81.0886 22.4224 80.6832 21.8038C80.2992 21.1638 80.0432 20.3851 79.9152 19.4678C79.8086 18.5291 79.7552 17.2491 79.7552 15.6278C79.7552 13.8571 79.9366 12.4704 80.2992 11.4678C80.6619 10.4651 81.3232 9.71845 82.2832 9.22778C83.2432 8.73711 84.5872 8.49178 86.3152 8.49178C88.2352 8.49178 89.7072 8.80111 90.7312 9.41978C91.7766 10.0384 92.2992 11.2331 92.2992 13.0038V13.5158H90.1552C90.1552 12.5984 90.0379 11.9264 89.8032 11.4998C89.5686 11.0518 89.1952 10.7424 88.6832 10.5718C88.1712 10.4011 87.4566 10.3158 86.5392 10.3158C85.1952 10.3158 84.2246 10.4438 83.6272 10.6998C83.0299 10.9344 82.6139 11.4038 82.3792 12.1078C82.1659 12.7904 82.0592 13.8784 82.0592 15.3718V16.8438C82.0592 18.1664 82.1339 19.1691 82.2832 19.8518C82.4326 20.5131 82.7952 21.0251 83.3712 21.3878C83.9686 21.7291 84.8966 21.8998 86.1552 21.8998C87.3499 21.8998 88.2246 21.8251 88.7792 21.6758C89.3552 21.5051 89.7606 21.1531 89.9952 20.6198C90.2512 20.0651 90.3792 19.2331 90.3792 18.1238Z" fill="white"/>
</svg>
