<svg width="92" height="23" viewBox="0 0 92 23" fill="none" xmlns="http://www.w3.org/2000/svg">
<path d="M16.568 15.856C16.568 17.1787 16.3867 18.2987 16.024 19.216C15.6827 20.112 15.1067 20.8053 14.296 21.296C13.4853 21.7653 12.408 22 11.064 22H0.248V0.719999H15V2.832H2.584V10H11.224C12.9093 10 14.2213 10.5013 15.16 11.504C16.0987 12.5067 16.568 13.8507 16.568 15.536V15.856ZM11 12.112H2.584V19.92H9.112C10.4987 19.92 11.512 19.8453 12.152 19.696C12.792 19.5467 13.2613 19.1947 13.56 18.64C13.8587 18.0853 14.008 17.1893 14.008 15.952C14.008 14.6933 13.8053 13.744 13.4 13.104C13.016 12.4427 12.216 12.112 11 12.112ZM31.1693 22H28.9293V9.84L21.3453 22H20.7693H18.5293V7.088H20.7693V19.28L28.3853 7.088H31.1693V22ZM44.1815 14.48C45.4402 14.8213 46.0695 15.856 46.0695 17.584C46.0695 18.9493 45.8135 19.9627 45.3015 20.624C44.8108 21.2853 44.1282 21.712 43.2535 21.904C42.3788 22.0747 41.2268 22.16 39.7975 22.16C38.4748 22.16 37.3655 22.0853 36.4695 21.936C35.5948 21.7653 34.8588 21.392 34.2615 20.816C33.6642 20.2187 33.3655 19.312 33.3655 18.096C33.3655 17.712 33.3762 17.4347 33.3975 17.264H35.6055C35.6055 18.1387 35.7228 18.8107 35.9575 19.28C36.1922 19.728 36.5548 20.0373 37.0455 20.208C37.5362 20.3573 38.2402 20.432 39.1575 20.432H39.6695C41.4188 20.432 42.5815 20.24 43.1575 19.856C43.6055 19.5573 43.8295 18.832 43.8295 17.68C43.8295 16.72 43.5948 16.112 43.1255 15.856C42.6562 15.5787 41.9415 15.44 40.9815 15.44H40.1175C40.0535 15.44 39.9788 15.4293 39.8935 15.408C39.8082 15.3867 39.7335 15.376 39.6695 15.376H36.5335V13.328H41.5575C42.5175 13.3067 43.1468 13.136 43.4455 12.816C43.7442 12.4747 43.8935 11.8453 43.8935 10.928C43.8935 10.0533 43.6055 9.47733 43.0295 9.2C42.4748 8.90133 41.6962 8.752 40.6935 8.752H39.1895C38.2508 8.752 37.5042 8.90133 36.9495 9.2C36.4162 9.49867 36.1495 10.1173 36.1495 11.056H33.9415C33.9415 10.9707 33.9308 10.8853 33.9095 10.8C33.8882 10.6933 33.8775 10.608 33.8775 10.544C33.8775 9.456 34.1762 8.64533 34.7735 8.112C35.3922 7.57867 36.1388 7.248 37.0135 7.12C37.8882 6.992 38.9335 6.928 40.1495 6.928C42.4748 6.928 44.0962 7.28 45.0135 7.984C45.4402 8.32533 45.7175 8.784 45.8455 9.36C45.9948 9.936 46.0695 10.6187 46.0695 11.408C46.0695 12.24 45.8988 12.9333 45.5575 13.488C45.2375 14.0427 44.7788 14.3733 44.1815 14.48ZM58.7723 12.976V7.088H60.9803V22H58.7403V14.928H50.6123V22H48.4043V7.12H50.6123V12.976H58.7723ZM73.994 17.456H76.33C76.33 18.864 76.074 19.9093 75.562 20.592C75.05 21.2533 74.3567 21.68 73.482 21.872C72.6073 22.064 71.434 22.16 69.962 22.16C68.5753 22.16 67.4447 22.0427 66.57 21.808C65.6953 21.552 65.0233 21.1467 64.554 20.592C64.0847 20.0373 63.754 19.3013 63.562 18.384C63.3913 17.4667 63.306 16.304 63.306 14.896C63.306 12.912 63.4233 11.376 63.658 10.288C63.914 9.2 64.5007 8.368 65.418 7.792C66.3567 7.19467 67.754 6.896 69.61 6.896C71.466 6.896 72.874 7.088 73.834 7.472C74.794 7.856 75.4447 8.528 75.786 9.488C76.1273 10.4267 76.3087 11.8667 76.33 13.808V14.928H65.61C65.61 16.2933 65.674 17.3387 65.802 18.064C65.93 18.768 66.282 19.344 66.858 19.792C67.434 20.2187 68.3513 20.432 69.61 20.432H70.218C71.4553 20.432 72.394 20.2827 73.034 19.984C73.674 19.6853 73.994 19.0027 73.994 17.936V17.456ZM74.058 13.2C74.058 11.856 73.9727 10.8747 73.802 10.256C73.6313 9.63733 73.2367 9.21067 72.618 8.976C72.0207 8.72 71.0713 8.592 69.77 8.592C68.6393 8.592 67.7753 8.73067 67.178 9.008C66.602 9.28533 66.1967 9.75467 65.962 10.416C65.7273 11.056 65.61 11.984 65.61 13.2H74.058ZM89.0238 16.56H91.2318C91.2318 18.096 91.0291 19.2693 90.6238 20.08C90.2184 20.8693 89.5571 21.4133 88.6398 21.712C87.7438 21.9893 86.5171 22.128 84.9598 22.128C83.4024 22.128 82.1758 21.968 81.2798 21.648C80.3838 21.328 79.7331 20.8587 79.3278 20.24C78.9438 19.6 78.6878 18.8213 78.5598 17.904C78.4531 16.9653 78.3997 15.6853 78.3997 14.064C78.3997 12.2933 78.5811 10.9067 78.9438 9.904C79.3064 8.90133 79.9678 8.15467 80.9278 7.664C81.8878 7.17333 83.2318 6.928 84.9598 6.928C86.8798 6.928 88.3518 7.23733 89.3758 7.856C90.4211 8.47467 90.9438 9.66933 90.9438 11.44V11.952H88.7998C88.7998 11.0347 88.6824 10.3627 88.4478 9.936C88.2131 9.488 87.8398 9.17867 87.3278 9.008C86.8158 8.83733 86.1011 8.752 85.1838 8.752C83.8398 8.752 82.8691 8.88 82.2718 9.136C81.6744 9.37067 81.2584 9.84 81.0238 10.544C80.8104 11.2267 80.7038 12.3147 80.7038 13.808V15.28C80.7038 16.6027 80.7784 17.6053 80.9278 18.288C81.0771 18.9493 81.4398 19.4613 82.0158 19.824C82.6131 20.1653 83.5411 20.336 84.7998 20.336C85.9944 20.336 86.8691 20.2613 87.4238 20.112C87.9998 19.9413 88.4051 19.5893 88.6398 19.056C88.8958 18.5013 89.0238 17.6693 89.0238 16.56Z" fill="white"/>
</svg>
