<svg width="101" height="29" viewBox="0 0 101 29" fill="none" xmlns="http://www.w3.org/2000/svg">
<path d="M20.4488 25.456H18.3048V23.184C18.3048 22.3947 18.0061 22 17.4088 22H3.87275C3.55275 22.0213 3.33942 22.128 3.23275 22.32C3.12608 22.4907 3.07275 22.7787 3.07275 23.184V25.456H0.92875V19.92H2.14475C2.74208 19.5147 3.17942 18.6613 3.45675 17.36C3.73408 16.1227 3.87275 14.608 3.87275 12.816V0.623999H18.9128V19.92H20.4488V25.456ZM16.5448 19.92V2.736H6.24075V13.552C6.24075 17.0933 5.72875 19.216 4.70475 19.92H16.5448ZM22.7793 7.12H24.8913L24.8593 9.04C25.3713 8.22933 26.0113 7.67467 26.7793 7.376C27.5686 7.07733 28.4966 6.928 29.5633 6.928C31.2913 6.928 32.5819 7.216 33.4353 7.792C34.3099 8.34667 34.8753 9.15733 35.1313 10.224C35.4086 11.2693 35.5473 12.688 35.5473 14.48C35.5473 15.8027 35.4833 16.9013 35.3553 17.776C35.2486 18.6507 35.0033 19.4187 34.6193 20.08C34.2566 20.7413 33.6806 21.2533 32.8913 21.616C32.1019 21.9787 31.0779 22.16 29.8193 22.16C28.7099 22.16 27.7499 22.032 26.9393 21.776C26.1286 21.4987 25.4459 20.976 24.8913 20.208V28.4H22.7793V7.12ZM24.9233 14.064V15.216C24.9233 16.368 25.0193 17.3067 25.2113 18.032C25.4033 18.7573 25.7979 19.3227 26.3953 19.728C27.0139 20.1333 27.9099 20.336 29.0833 20.336C30.3419 20.336 31.2699 20.144 31.8673 19.76C32.4646 19.376 32.8379 18.832 32.9873 18.128C33.1579 17.424 33.2433 16.4 33.2433 15.056V14.192C33.2433 12.7627 33.1686 11.696 33.0193 10.992C32.8913 10.2667 32.5286 9.712 31.9313 9.328C31.3553 8.944 30.4379 8.752 29.1793 8.752C27.9206 8.752 26.9819 8.93333 26.3633 9.296C25.7659 9.63733 25.3713 10.1707 25.1793 10.896C25.0086 11.6 24.9233 12.656 24.9233 14.064ZM49.1535 7.12L44.9615 22.832C44.6202 24.2827 44.0228 25.6267 43.1695 26.864C42.3162 28.1013 41.2922 28.72 40.0975 28.72C39.7562 28.72 39.3508 28.656 38.8815 28.528V26.736C38.9242 26.736 39.0202 26.7467 39.1695 26.768C39.3188 26.7893 39.4148 26.8 39.4575 26.8C40.1615 26.8 40.7268 26.5547 41.1535 26.064C41.6015 25.5947 41.9108 25.0613 42.0815 24.464C42.2735 23.888 42.4975 23.0667 42.7535 22H41.9855L36.6095 7.12H38.8815L43.5535 20.336L46.8815 7.12H49.1535ZM61.7233 7.12V13.168H62.3953L67.2593 7.184H69.7553L63.9953 14L70.7473 22H68.1553L62.3953 14.896H61.7233V22H59.5153V14.896H58.8753L53.1473 22H50.4913L57.2433 14L51.5153 7.184H54.0433L58.8753 13.168H59.5153V7.12H61.7233ZM72.7747 7.536C72.7747 7.45067 72.7641 7.344 72.7428 7.216C72.7214 7.088 72.7108 6.98133 72.7108 6.896C72.7108 5.97867 72.9134 5.18933 73.3188 4.528C73.7241 3.86667 74.3534 3.344 75.2068 2.96C76.0601 2.576 77.1481 2.384 78.4708 2.384H79.0788C79.2068 2.384 79.3881 2.39467 79.6228 2.416C79.8788 2.43733 80.0601 2.448 80.1667 2.448C81.1694 2.448 81.8948 2.32 82.3428 2.064C82.7908 1.78667 83.0148 1.36 83.0148 0.783998L85.4148 0.719999C85.4148 1.14667 85.4041 1.49867 85.3828 1.776C85.3828 2.05333 85.3294 2.32 85.2228 2.576C85.1161 2.832 84.9241 3.06667 84.6468 3.28C83.9854 3.92 82.5774 4.24 80.4228 4.24C80.2948 4.24 80.1028 4.22933 79.8468 4.208C79.6121 4.18667 79.4308 4.176 79.3028 4.176C77.9801 4.176 76.9561 4.368 76.2308 4.752C75.5268 5.11467 75.1748 5.872 75.1748 7.024V7.728C76.3054 7.13067 77.6174 6.832 79.1108 6.832C80.9881 6.832 82.4174 7.04533 83.3988 7.472C84.3801 7.87733 85.0521 8.58133 85.4148 9.584C85.7774 10.5867 85.9588 12.0587 85.9588 14C85.9588 15.984 85.8521 17.5307 85.6388 18.64C85.4468 19.728 84.9028 20.6027 84.0068 21.264C83.1108 21.904 81.7028 22.224 79.7828 22.224C77.9481 22.224 76.5294 22.0533 75.5268 21.712C74.5454 21.3707 73.8414 20.72 73.4148 19.76C72.9881 18.8 72.7747 17.392 72.7747 15.536V7.536ZM75.0148 15.376C75.0148 17.68 75.3348 19.152 75.9748 19.792C76.3801 20.2187 77.1694 20.432 78.3428 20.432H79.4308C80.3694 20.432 81.1161 20.3573 81.6708 20.208C82.2468 20.0373 82.6841 19.7173 82.9828 19.248C83.3028 18.7787 83.4948 18.096 83.5588 17.2C83.6014 16.432 83.6228 15.3013 83.6228 13.808C83.6228 12.3573 83.5588 11.3013 83.4308 10.64C83.3241 9.97867 83.0041 9.488 82.4708 9.168C81.9374 8.82667 81.0841 8.656 79.9108 8.656H79.4308C78.0868 8.656 77.1161 8.784 76.5188 9.04C75.9214 9.27467 75.5161 9.73333 75.3028 10.416C75.1108 11.0773 75.0148 12.1547 75.0148 13.648V15.376ZM90.776 11.408H88.504C88.504 9.552 88.9733 8.368 89.912 7.856C90.8507 7.344 92.344 7.088 94.392 7.088C95.9067 7.088 97.112 7.20533 98.008 7.44C98.9253 7.67467 99.6187 8.16533 100.088 8.912C100.579 9.65867 100.824 10.7893 100.824 12.304V22H98.744L98.84 20.432C98.3067 21.1787 97.6347 21.6693 96.824 21.904C96.0133 22.1173 95.0107 22.224 93.816 22.224C92.4933 22.224 91.416 22.1173 90.584 21.904C89.752 21.6693 89.112 21.2107 88.664 20.528C88.216 19.824 87.992 18.8213 87.992 17.52C87.992 16.2613 88.2267 15.312 88.696 14.672C89.1653 14.0107 89.8053 13.5733 90.616 13.36C91.448 13.1467 92.504 13.04 93.784 13.04C94.9573 13.04 95.928 13.1253 96.696 13.296C97.4853 13.4667 98.104 13.8827 98.552 14.544V12.816C98.552 11.536 98.4453 10.6187 98.232 10.064C98.0187 9.488 97.624 9.11467 97.048 8.944C96.472 8.752 95.5333 8.656 94.232 8.656C92.8453 8.656 91.896 8.85867 91.384 9.264C90.936 9.56267 90.712 10.096 90.712 10.864C90.712 10.9493 90.7227 11.0453 90.744 11.152C90.7653 11.2373 90.776 11.3227 90.776 11.408ZM90.296 17.264C90.296 18.544 90.552 19.3973 91.064 19.824C91.576 20.2293 92.4613 20.432 93.72 20.432C94.68 20.432 95.4907 20.3893 96.152 20.304C96.8347 20.1973 97.4213 19.952 97.912 19.568C98.424 19.1627 98.68 18.512 98.68 17.616C98.68 16.4 98.3387 15.6213 97.656 15.28C96.9733 14.9387 95.9387 14.768 94.552 14.768H93.976C92.376 14.768 91.32 14.992 90.808 15.44C90.4667 15.7173 90.296 16.3253 90.296 17.264Z" fill="white"/>
</svg>
