<svg width="142" height="23" viewBox="0 0 142 23" fill="none" xmlns="http://www.w3.org/2000/svg">
<path d="M23.608 0.719999V22H21.144V2.448L13.112 22H10.744L2.584 2.608V22H0.248V0.719999H4.408L11.864 18.896L19.416 0.719999H23.608ZM26.0918 22V7.12H28.2678V12.496H33.9638C35.3718 12.5813 36.4384 12.9867 37.1638 13.712C37.9104 14.416 38.2944 15.4293 38.3158 16.752C38.3158 18.1387 38.1771 19.1947 37.8998 19.92C37.6224 20.6453 37.1211 21.1787 36.3958 21.52C35.6918 21.84 34.6678 22 33.3238 22H26.0918ZM28.2038 14.48V20.272H32.1718C32.2998 20.272 32.5024 20.2827 32.7798 20.304C33.0571 20.3253 33.2704 20.336 33.4198 20.336C34.3371 20.336 35.0198 20.176 35.4678 19.856C35.9584 19.5573 36.2038 18.7573 36.2038 17.456V17.168C36.2038 16.2293 35.9478 15.5467 35.4358 15.12C34.9451 14.6933 33.9744 14.48 32.5238 14.48H28.2038ZM39.5638 22V7.12H41.8678V22H39.5638ZM66.5163 22H64.4043V19.792C63.9989 20.5813 63.3056 21.2 62.3243 21.648C61.3429 22.096 60.2976 22.32 59.1883 22.32C58.1856 22.32 57.2683 22.1067 56.4363 21.68C55.6043 21.232 55.0496 20.6027 54.7723 19.792C53.8123 21.4133 52.1376 22.224 49.7483 22.224C48.4683 22.224 47.4336 22.0533 46.6443 21.712C45.8549 21.3707 45.2789 20.8267 44.9163 20.08C44.5536 19.312 44.3723 18.2667 44.3723 16.944V7.12H46.7083V17.168C46.7083 18.4267 46.9429 19.2907 47.4123 19.76C47.8816 20.208 48.7456 20.432 50.0043 20.432C52.2016 20.432 53.5349 19.8453 54.0043 18.672C54.2389 18.0747 54.3563 17.2747 54.3563 16.272V7.12H56.6283V16.944C56.6496 17.648 56.7029 18.2133 56.7883 18.64C56.8949 19.0667 57.0656 19.4187 57.3003 19.696C57.5563 19.9733 57.8976 20.1653 58.3243 20.272C58.7723 20.3787 59.3483 20.432 60.0522 20.432C61.6309 20.432 62.7509 20.0373 63.4123 19.248C64.0736 18.4587 64.4043 17.2747 64.4043 15.696V7.12H66.5163V22ZM81.318 21.936H78.95L74.886 8.752L70.566 21.936H68.326L73.222 7.088H76.358L81.318 21.936ZM93.6503 17.456H95.9863C95.9863 18.864 95.7303 19.9093 95.2183 20.592C94.7063 21.2533 94.0129 21.68 93.1383 21.872C92.2636 22.064 91.0903 22.16 89.6183 22.16C88.2316 22.16 87.1009 22.0427 86.2263 21.808C85.3516 21.552 84.6796 21.1467 84.2103 20.592C83.7409 20.0373 83.4103 19.3013 83.2183 18.384C83.0476 17.4667 82.9622 16.304 82.9622 14.896C82.9622 12.912 83.0796 11.376 83.3143 10.288C83.5703 9.2 84.1569 8.368 85.0743 7.792C86.0129 7.19467 87.4103 6.896 89.2663 6.896C91.1223 6.896 92.5303 7.088 93.4903 7.472C94.4503 7.856 95.1009 8.528 95.4423 9.488C95.7836 10.4267 95.9649 11.8667 95.9863 13.808V14.928H85.2663C85.2663 16.2933 85.3303 17.3387 85.4583 18.064C85.5863 18.768 85.9383 19.344 86.5143 19.792C87.0903 20.2187 88.0076 20.432 89.2663 20.432H89.8743C91.1116 20.432 92.0503 20.2827 92.6903 19.984C93.3303 19.6853 93.6503 19.0027 93.6503 17.936V17.456ZM93.7143 13.2C93.7143 11.856 93.6289 10.8747 93.4583 10.256C93.2876 9.63733 92.8929 9.21067 92.2743 8.976C91.6769 8.72 90.7276 8.592 89.4263 8.592C88.2956 8.592 87.4316 8.73067 86.8343 9.008C86.2583 9.28533 85.8529 9.75467 85.6183 10.416C85.3836 11.056 85.2663 11.984 85.2663 13.2H93.7143ZM108.616 12.976V7.088H110.824V22H108.584V14.928H100.456V22H98.248V7.12H100.456V12.976H108.616ZM125.982 22H123.742V9.84L116.158 22H115.582H113.342V7.088H115.582V19.28L123.198 7.088H125.982V22ZM138.994 17.456H141.33C141.33 18.864 141.074 19.9093 140.562 20.592C140.05 21.2533 139.357 21.68 138.482 21.872C137.607 22.064 136.434 22.16 134.962 22.16C133.575 22.16 132.445 22.0427 131.57 21.808C130.695 21.552 130.023 21.1467 129.554 20.592C129.085 20.0373 128.754 19.3013 128.562 18.384C128.391 17.4667 128.306 16.304 128.306 14.896C128.306 12.912 128.423 11.376 128.658 10.288C128.914 9.2 129.501 8.368 130.418 7.792C131.357 7.19467 132.754 6.896 134.61 6.896C136.466 6.896 137.874 7.088 138.834 7.472C139.794 7.856 140.445 8.528 140.786 9.488C141.127 10.4267 141.309 11.8667 141.33 13.808V14.928H130.61C130.61 16.2933 130.674 17.3387 130.802 18.064C130.93 18.768 131.282 19.344 131.858 19.792C132.434 20.2187 133.351 20.432 134.61 20.432H135.218C136.455 20.432 137.394 20.2827 138.034 19.984C138.674 19.6853 138.994 19.0027 138.994 17.936V17.456ZM139.058 13.2C139.058 11.856 138.973 10.8747 138.802 10.256C138.631 9.63733 138.237 9.21067 137.618 8.976C137.021 8.72 136.071 8.592 134.77 8.592C133.639 8.592 132.775 8.73067 132.178 9.008C131.602 9.28533 131.197 9.75467 130.962 10.416C130.727 11.056 130.61 11.984 130.61 13.2H139.058Z" fill="white"/>
</svg>
