<svg width="81" height="23" viewBox="0 0 81 23" fill="none" xmlns="http://www.w3.org/2000/svg">
<path d="M14.9613 14.768H17.3293C17.3293 15.0027 17.3506 15.344 17.3933 15.792C17.4359 16.2187 17.4573 16.5387 17.4573 16.752C17.4573 19.952 15.8786 21.7013 12.7213 22C11.5906 22.0853 10.4493 22.128 9.29725 22.128H6.32125C4.82792 22 3.65458 21.6267 2.80125 21.008C1.96925 20.368 1.39325 19.5467 1.07325 18.544C0.75325 17.52 0.56125 16.3253 0.49725 14.96C0.43325 13.5733 0.40125 12.3787 0.40125 11.376V7.984C0.40125 6.576 0.550583 5.38133 0.84925 4.4C1.14792 3.39733 1.70258 2.58667 2.51325 1.968C3.32392 1.34933 4.43325 0.975999 5.84125 0.848C6.71592 0.741333 8.09192 0.688 9.96925 0.688C11.4839 0.688 12.6679 0.773333 13.5213 0.943998C14.3746 1.11467 15.0466 1.424 15.5373 1.872C16.0279 2.32 16.3906 2.98133 16.6253 3.856C16.8599 4.70933 17.0306 5.89333 17.1373 7.408H14.7373C14.7373 6.21333 14.6626 5.296 14.5133 4.656C14.3639 4.016 14.0119 3.54667 13.4573 3.248C12.9026 2.928 12.0813 2.768 10.9933 2.768C9.62792 2.768 8.12392 2.82133 6.48125 2.928C5.47858 3.01333 4.71058 3.248 4.17725 3.632C3.64392 4.016 3.29192 4.54933 3.12125 5.232C2.97192 5.89333 2.89725 6.78933 2.89725 7.92V12.816C2.89725 15.696 3.18525 17.648 3.76125 18.672C4.25192 19.5893 5.64925 20.048 7.95325 20.048C8.12392 20.048 8.43325 20.0587 8.88125 20.08C9.35058 20.1013 9.71325 20.112 9.96925 20.112C11.4199 20.112 12.6146 19.92 13.5533 19.536C14.4919 19.1307 14.9826 18.3413 15.0253 17.168C15.0253 16.8907 15.0146 16.496 14.9933 15.984C14.9719 15.4507 14.9613 15.0453 14.9613 14.768ZM30.1815 17.456H32.5175C32.5175 18.864 32.2615 19.9093 31.7495 20.592C31.2375 21.2533 30.5442 21.68 29.6695 21.872C28.7948 22.064 27.6215 22.16 26.1495 22.16C24.7628 22.16 23.6322 22.0427 22.7575 21.808C21.8828 21.552 21.2108 21.1467 20.7415 20.592C20.2722 20.0373 19.9415 19.3013 19.7495 18.384C19.5788 17.4667 19.4935 16.304 19.4935 14.896C19.4935 12.912 19.6108 11.376 19.8455 10.288C20.1015 9.2 20.6882 8.368 21.6055 7.792C22.5442 7.19467 23.9415 6.896 25.7975 6.896C27.6535 6.896 29.0615 7.088 30.0215 7.472C30.9815 7.856 31.6322 8.528 31.9735 9.488C32.3148 10.4267 32.4962 11.8667 32.5175 13.808V14.928H21.7975C21.7975 16.2933 21.8615 17.3387 21.9895 18.064C22.1175 18.768 22.4695 19.344 23.0455 19.792C23.6215 20.2187 24.5388 20.432 25.7975 20.432H26.4055C27.6428 20.432 28.5815 20.2827 29.2215 19.984C29.8615 19.6853 30.1815 19.0027 30.1815 17.936V17.456ZM30.2455 13.2C30.2455 11.856 30.1602 10.8747 29.9895 10.256C29.8188 9.63733 29.4242 9.21067 28.8055 8.976C28.2082 8.72 27.2588 8.592 25.9575 8.592C24.8268 8.592 23.9628 8.73067 23.3655 9.008C22.7895 9.28533 22.3842 9.75467 22.1495 10.416C21.9148 11.056 21.7975 11.984 21.7975 13.2H30.2455ZM43.4193 20.432L48.7953 7.088H52.2193V21.936H50.1393V9.04L44.9233 21.936H42.0113L36.7953 9.04V21.936H34.7793V7.088H38.0433L43.4193 20.432ZM54.748 22V7.12H56.924V12.496H62.62C64.0067 12.5813 65.0733 12.9867 65.82 13.712C66.588 14.416 66.9827 15.4293 67.004 16.752C67.004 18.1387 66.8653 19.1947 66.588 19.92C66.332 20.6453 65.8413 21.1787 65.116 21.52C64.412 21.84 63.388 22 62.044 22H54.748ZM60.38 20.272H60.892C61.02 20.272 61.2227 20.2827 61.5 20.304C61.7773 20.3253 61.9907 20.336 62.14 20.336C63.036 20.336 63.6867 20.176 64.092 19.856C64.6253 19.5573 64.892 18.7573 64.892 17.456V17.168C64.892 16.2293 64.636 15.5467 64.124 15.12C63.612 14.6933 62.6413 14.48 61.212 14.48H56.892V20.272H60.38ZM80.7205 7.12V22H78.5125V16.56H72.6885C72.2192 16.56 71.8138 16.72 71.4725 17.04C71.1525 17.36 70.9925 17.6587 70.9925 17.936L70.9285 22H68.6885L68.7845 18.224L68.7525 18.096C68.7525 17.4987 68.9125 16.912 69.2325 16.336C69.5525 15.76 69.9472 15.4613 70.4165 15.44C69.7765 14.9493 69.2858 14.5013 68.9445 14.096C68.6032 13.6693 68.4325 13.104 68.4325 12.4C68.4325 11.0133 68.5605 9.94667 68.8165 9.2C69.0725 8.45333 69.5312 7.92 70.1925 7.6C70.8752 7.28 71.8672 7.12 73.1685 7.12H80.7205ZM78.5125 8.816H73.4885C72.4218 8.816 71.6752 8.944 71.2485 9.2C70.8005 9.54133 70.5765 10.352 70.5765 11.632C70.5765 11.6747 70.5658 11.728 70.5445 11.792C70.5232 11.8347 70.5125 11.8667 70.5125 11.888C70.5125 13.7653 71.5472 14.704 73.6165 14.704C73.6805 14.704 73.8512 14.6933 74.1285 14.672C74.4272 14.6293 74.6512 14.608 74.8005 14.608H78.5125V8.816Z" fill="white"/>
</svg>
